%TF.GenerationSoftware,KiCad,Pcbnew,9.0.7*%
%TF.CreationDate,2026-03-03T14:20:22-03:00*%
%TF.ProjectId,Relay_H_BRIDGE,52656c61-795f-4485-9f42-52494447452e,rev?*%
%TF.SameCoordinates,Original*%
%TF.FileFunction,Legend,Top*%
%TF.FilePolarity,Positive*%
%FSLAX46Y46*%
G04 Gerber Fmt 4.6, Leading zero omitted, Abs format (unit mm)*
G04 Created by KiCad (PCBNEW 9.0.7) date 2026-03-03 14:20:22*
%MOMM*%
%LPD*%
G01*
G04 APERTURE LIST*
G04 Aperture macros list*
%AMRoundRect*
0 Rectangle with rounded corners*
0 $1 Rounding radius*
0 $2 $3 $4 $5 $6 $7 $8 $9 X,Y pos of 4 corners*
0 Add a 4 corners polygon primitive as box body*
4,1,4,$2,$3,$4,$5,$6,$7,$8,$9,$2,$3,0*
0 Add four circle primitives for the rounded corners*
1,1,$1+$1,$2,$3*
1,1,$1+$1,$4,$5*
1,1,$1+$1,$6,$7*
1,1,$1+$1,$8,$9*
0 Add four rect primitives between the rounded corners*
20,1,$1+$1,$2,$3,$4,$5,0*
20,1,$1+$1,$4,$5,$6,$7,0*
20,1,$1+$1,$6,$7,$8,$9,0*
20,1,$1+$1,$8,$9,$2,$3,0*%
G04 Aperture macros list end*
%ADD10C,0.100000*%
%ADD11C,0.150000*%
%ADD12C,0.300000*%
%ADD13C,0.400000*%
%ADD14C,0.120000*%
%ADD15C,1.600000*%
%ADD16O,2.000000X3.000000*%
%ADD17R,3.000000X2.000000*%
%ADD18O,3.000000X2.000000*%
%ADD19R,1.050000X1.500000*%
%ADD20O,1.050000X1.500000*%
%ADD21RoundRect,0.250000X-0.650000X-1.400000X0.650000X-1.400000X0.650000X1.400000X-0.650000X1.400000X0*%
%ADD22RoundRect,0.250000X0.650000X1.400000X-0.650000X1.400000X-0.650000X-1.400000X0.650000X-1.400000X0*%
%ADD23RoundRect,0.249999X-0.850001X-0.850001X0.850001X-0.850001X0.850001X0.850001X-0.850001X0.850001X0*%
%ADD24C,2.200000*%
%ADD25R,1.800000X1.800000*%
%ADD26C,1.800000*%
%ADD27RoundRect,0.250001X1.549999X-0.799999X1.549999X0.799999X-1.549999X0.799999X-1.549999X-0.799999X0*%
%ADD28O,3.600000X2.100000*%
%ADD29RoundRect,0.249999X0.850001X0.850001X-0.850001X0.850001X-0.850001X-0.850001X0.850001X-0.850001X0*%
G04 APERTURE END LIST*
D10*
D11*
X177002200Y-166007200D02*
X285002200Y-166007200D01*
X285002200Y-198007200D01*
X177002200Y-198007200D01*
X177002200Y-166007200D01*
D10*
D11*
X10000000Y-10000000D02*
X287002200Y-10000000D01*
X287002200Y-200007200D01*
X10000000Y-200007200D01*
X10000000Y-10000000D01*
D10*
D11*
X12000000Y-12000000D02*
X285002200Y-12000000D01*
X285002200Y-198007200D01*
X12000000Y-198007200D01*
X12000000Y-12000000D01*
D10*
D11*
X60000000Y-12000000D02*
X60000000Y-10000000D01*
D10*
D11*
X110000000Y-12000000D02*
X110000000Y-10000000D01*
D10*
D11*
X160000000Y-12000000D02*
X160000000Y-10000000D01*
D10*
D11*
X210000000Y-12000000D02*
X210000000Y-10000000D01*
D10*
D11*
X260000000Y-12000000D02*
X260000000Y-10000000D01*
D10*
D11*
X36089160Y-11593604D02*
X35346303Y-11593604D01*
X35717731Y-11593604D02*
X35717731Y-10293604D01*
X35717731Y-10293604D02*
X35593922Y-10479319D01*
X35593922Y-10479319D02*
X35470112Y-10603128D01*
X35470112Y-10603128D02*
X35346303Y-10665033D01*
D10*
D11*
X85346303Y-10417414D02*
X85408207Y-10355509D01*
X85408207Y-10355509D02*
X85532017Y-10293604D01*
X85532017Y-10293604D02*
X85841541Y-10293604D01*
X85841541Y-10293604D02*
X85965350Y-10355509D01*
X85965350Y-10355509D02*
X86027255Y-10417414D01*
X86027255Y-10417414D02*
X86089160Y-10541223D01*
X86089160Y-10541223D02*
X86089160Y-10665033D01*
X86089160Y-10665033D02*
X86027255Y-10850747D01*
X86027255Y-10850747D02*
X85284398Y-11593604D01*
X85284398Y-11593604D02*
X86089160Y-11593604D01*
D10*
D11*
X135284398Y-10293604D02*
X136089160Y-10293604D01*
X136089160Y-10293604D02*
X135655826Y-10788842D01*
X135655826Y-10788842D02*
X135841541Y-10788842D01*
X135841541Y-10788842D02*
X135965350Y-10850747D01*
X135965350Y-10850747D02*
X136027255Y-10912652D01*
X136027255Y-10912652D02*
X136089160Y-11036461D01*
X136089160Y-11036461D02*
X136089160Y-11345985D01*
X136089160Y-11345985D02*
X136027255Y-11469795D01*
X136027255Y-11469795D02*
X135965350Y-11531700D01*
X135965350Y-11531700D02*
X135841541Y-11593604D01*
X135841541Y-11593604D02*
X135470112Y-11593604D01*
X135470112Y-11593604D02*
X135346303Y-11531700D01*
X135346303Y-11531700D02*
X135284398Y-11469795D01*
D10*
D11*
X185965350Y-10726938D02*
X185965350Y-11593604D01*
X185655826Y-10231700D02*
X185346303Y-11160271D01*
X185346303Y-11160271D02*
X186151064Y-11160271D01*
D10*
D11*
X236027255Y-10293604D02*
X235408207Y-10293604D01*
X235408207Y-10293604D02*
X235346303Y-10912652D01*
X235346303Y-10912652D02*
X235408207Y-10850747D01*
X235408207Y-10850747D02*
X235532017Y-10788842D01*
X235532017Y-10788842D02*
X235841541Y-10788842D01*
X235841541Y-10788842D02*
X235965350Y-10850747D01*
X235965350Y-10850747D02*
X236027255Y-10912652D01*
X236027255Y-10912652D02*
X236089160Y-11036461D01*
X236089160Y-11036461D02*
X236089160Y-11345985D01*
X236089160Y-11345985D02*
X236027255Y-11469795D01*
X236027255Y-11469795D02*
X235965350Y-11531700D01*
X235965350Y-11531700D02*
X235841541Y-11593604D01*
X235841541Y-11593604D02*
X235532017Y-11593604D01*
X235532017Y-11593604D02*
X235408207Y-11531700D01*
X235408207Y-11531700D02*
X235346303Y-11469795D01*
D10*
D11*
X285965350Y-10293604D02*
X285717731Y-10293604D01*
X285717731Y-10293604D02*
X285593922Y-10355509D01*
X285593922Y-10355509D02*
X285532017Y-10417414D01*
X285532017Y-10417414D02*
X285408207Y-10603128D01*
X285408207Y-10603128D02*
X285346303Y-10850747D01*
X285346303Y-10850747D02*
X285346303Y-11345985D01*
X285346303Y-11345985D02*
X285408207Y-11469795D01*
X285408207Y-11469795D02*
X285470112Y-11531700D01*
X285470112Y-11531700D02*
X285593922Y-11593604D01*
X285593922Y-11593604D02*
X285841541Y-11593604D01*
X285841541Y-11593604D02*
X285965350Y-11531700D01*
X285965350Y-11531700D02*
X286027255Y-11469795D01*
X286027255Y-11469795D02*
X286089160Y-11345985D01*
X286089160Y-11345985D02*
X286089160Y-11036461D01*
X286089160Y-11036461D02*
X286027255Y-10912652D01*
X286027255Y-10912652D02*
X285965350Y-10850747D01*
X285965350Y-10850747D02*
X285841541Y-10788842D01*
X285841541Y-10788842D02*
X285593922Y-10788842D01*
X285593922Y-10788842D02*
X285470112Y-10850747D01*
X285470112Y-10850747D02*
X285408207Y-10912652D01*
X285408207Y-10912652D02*
X285346303Y-11036461D01*
D10*
D11*
X60000000Y-198007200D02*
X60000000Y-200007200D01*
D10*
D11*
X110000000Y-198007200D02*
X110000000Y-200007200D01*
D10*
D11*
X160000000Y-198007200D02*
X160000000Y-200007200D01*
D10*
D11*
X210000000Y-198007200D02*
X210000000Y-200007200D01*
D10*
D11*
X260000000Y-198007200D02*
X260000000Y-200007200D01*
D10*
D11*
X36089160Y-199600804D02*
X35346303Y-199600804D01*
X35717731Y-199600804D02*
X35717731Y-198300804D01*
X35717731Y-198300804D02*
X35593922Y-198486519D01*
X35593922Y-198486519D02*
X35470112Y-198610328D01*
X35470112Y-198610328D02*
X35346303Y-198672233D01*
D10*
D11*
X85346303Y-198424614D02*
X85408207Y-198362709D01*
X85408207Y-198362709D02*
X85532017Y-198300804D01*
X85532017Y-198300804D02*
X85841541Y-198300804D01*
X85841541Y-198300804D02*
X85965350Y-198362709D01*
X85965350Y-198362709D02*
X86027255Y-198424614D01*
X86027255Y-198424614D02*
X86089160Y-198548423D01*
X86089160Y-198548423D02*
X86089160Y-198672233D01*
X86089160Y-198672233D02*
X86027255Y-198857947D01*
X86027255Y-198857947D02*
X85284398Y-199600804D01*
X85284398Y-199600804D02*
X86089160Y-199600804D01*
D10*
D11*
X135284398Y-198300804D02*
X136089160Y-198300804D01*
X136089160Y-198300804D02*
X135655826Y-198796042D01*
X135655826Y-198796042D02*
X135841541Y-198796042D01*
X135841541Y-198796042D02*
X135965350Y-198857947D01*
X135965350Y-198857947D02*
X136027255Y-198919852D01*
X136027255Y-198919852D02*
X136089160Y-199043661D01*
X136089160Y-199043661D02*
X136089160Y-199353185D01*
X136089160Y-199353185D02*
X136027255Y-199476995D01*
X136027255Y-199476995D02*
X135965350Y-199538900D01*
X135965350Y-199538900D02*
X135841541Y-199600804D01*
X135841541Y-199600804D02*
X135470112Y-199600804D01*
X135470112Y-199600804D02*
X135346303Y-199538900D01*
X135346303Y-199538900D02*
X135284398Y-199476995D01*
D10*
D11*
X185965350Y-198734138D02*
X185965350Y-199600804D01*
X185655826Y-198238900D02*
X185346303Y-199167471D01*
X185346303Y-199167471D02*
X186151064Y-199167471D01*
D10*
D11*
X236027255Y-198300804D02*
X235408207Y-198300804D01*
X235408207Y-198300804D02*
X235346303Y-198919852D01*
X235346303Y-198919852D02*
X235408207Y-198857947D01*
X235408207Y-198857947D02*
X235532017Y-198796042D01*
X235532017Y-198796042D02*
X235841541Y-198796042D01*
X235841541Y-198796042D02*
X235965350Y-198857947D01*
X235965350Y-198857947D02*
X236027255Y-198919852D01*
X236027255Y-198919852D02*
X236089160Y-199043661D01*
X236089160Y-199043661D02*
X236089160Y-199353185D01*
X236089160Y-199353185D02*
X236027255Y-199476995D01*
X236027255Y-199476995D02*
X235965350Y-199538900D01*
X235965350Y-199538900D02*
X235841541Y-199600804D01*
X235841541Y-199600804D02*
X235532017Y-199600804D01*
X235532017Y-199600804D02*
X235408207Y-199538900D01*
X235408207Y-199538900D02*
X235346303Y-199476995D01*
D10*
D11*
X285965350Y-198300804D02*
X285717731Y-198300804D01*
X285717731Y-198300804D02*
X285593922Y-198362709D01*
X285593922Y-198362709D02*
X285532017Y-198424614D01*
X285532017Y-198424614D02*
X285408207Y-198610328D01*
X285408207Y-198610328D02*
X285346303Y-198857947D01*
X285346303Y-198857947D02*
X285346303Y-199353185D01*
X285346303Y-199353185D02*
X285408207Y-199476995D01*
X285408207Y-199476995D02*
X285470112Y-199538900D01*
X285470112Y-199538900D02*
X285593922Y-199600804D01*
X285593922Y-199600804D02*
X285841541Y-199600804D01*
X285841541Y-199600804D02*
X285965350Y-199538900D01*
X285965350Y-199538900D02*
X286027255Y-199476995D01*
X286027255Y-199476995D02*
X286089160Y-199353185D01*
X286089160Y-199353185D02*
X286089160Y-199043661D01*
X286089160Y-199043661D02*
X286027255Y-198919852D01*
X286027255Y-198919852D02*
X285965350Y-198857947D01*
X285965350Y-198857947D02*
X285841541Y-198796042D01*
X285841541Y-198796042D02*
X285593922Y-198796042D01*
X285593922Y-198796042D02*
X285470112Y-198857947D01*
X285470112Y-198857947D02*
X285408207Y-198919852D01*
X285408207Y-198919852D02*
X285346303Y-199043661D01*
D10*
D11*
X10000000Y-60000000D02*
X12000000Y-60000000D01*
D10*
D11*
X10000000Y-110000000D02*
X12000000Y-110000000D01*
D10*
D11*
X10000000Y-160000000D02*
X12000000Y-160000000D01*
D10*
D11*
X10690476Y-35222176D02*
X11309523Y-35222176D01*
X10566666Y-35593604D02*
X10999999Y-34293604D01*
X10999999Y-34293604D02*
X11433333Y-35593604D01*
D10*
D11*
X11092857Y-84912652D02*
X11278571Y-84974557D01*
X11278571Y-84974557D02*
X11340476Y-85036461D01*
X11340476Y-85036461D02*
X11402380Y-85160271D01*
X11402380Y-85160271D02*
X11402380Y-85345985D01*
X11402380Y-85345985D02*
X11340476Y-85469795D01*
X11340476Y-85469795D02*
X11278571Y-85531700D01*
X11278571Y-85531700D02*
X11154761Y-85593604D01*
X11154761Y-85593604D02*
X10659523Y-85593604D01*
X10659523Y-85593604D02*
X10659523Y-84293604D01*
X10659523Y-84293604D02*
X11092857Y-84293604D01*
X11092857Y-84293604D02*
X11216666Y-84355509D01*
X11216666Y-84355509D02*
X11278571Y-84417414D01*
X11278571Y-84417414D02*
X11340476Y-84541223D01*
X11340476Y-84541223D02*
X11340476Y-84665033D01*
X11340476Y-84665033D02*
X11278571Y-84788842D01*
X11278571Y-84788842D02*
X11216666Y-84850747D01*
X11216666Y-84850747D02*
X11092857Y-84912652D01*
X11092857Y-84912652D02*
X10659523Y-84912652D01*
D10*
D11*
X11402380Y-135469795D02*
X11340476Y-135531700D01*
X11340476Y-135531700D02*
X11154761Y-135593604D01*
X11154761Y-135593604D02*
X11030952Y-135593604D01*
X11030952Y-135593604D02*
X10845238Y-135531700D01*
X10845238Y-135531700D02*
X10721428Y-135407890D01*
X10721428Y-135407890D02*
X10659523Y-135284080D01*
X10659523Y-135284080D02*
X10597619Y-135036461D01*
X10597619Y-135036461D02*
X10597619Y-134850747D01*
X10597619Y-134850747D02*
X10659523Y-134603128D01*
X10659523Y-134603128D02*
X10721428Y-134479319D01*
X10721428Y-134479319D02*
X10845238Y-134355509D01*
X10845238Y-134355509D02*
X11030952Y-134293604D01*
X11030952Y-134293604D02*
X11154761Y-134293604D01*
X11154761Y-134293604D02*
X11340476Y-134355509D01*
X11340476Y-134355509D02*
X11402380Y-134417414D01*
D10*
D11*
X10659523Y-185593604D02*
X10659523Y-184293604D01*
X10659523Y-184293604D02*
X10969047Y-184293604D01*
X10969047Y-184293604D02*
X11154761Y-184355509D01*
X11154761Y-184355509D02*
X11278571Y-184479319D01*
X11278571Y-184479319D02*
X11340476Y-184603128D01*
X11340476Y-184603128D02*
X11402380Y-184850747D01*
X11402380Y-184850747D02*
X11402380Y-185036461D01*
X11402380Y-185036461D02*
X11340476Y-185284080D01*
X11340476Y-185284080D02*
X11278571Y-185407890D01*
X11278571Y-185407890D02*
X11154761Y-185531700D01*
X11154761Y-185531700D02*
X10969047Y-185593604D01*
X10969047Y-185593604D02*
X10659523Y-185593604D01*
D10*
D11*
X287002200Y-60000000D02*
X285002200Y-60000000D01*
D10*
D11*
X287002200Y-110000000D02*
X285002200Y-110000000D01*
D10*
D11*
X287002200Y-160000000D02*
X285002200Y-160000000D01*
D10*
D11*
X285692676Y-35222176D02*
X286311723Y-35222176D01*
X285568866Y-35593604D02*
X286002199Y-34293604D01*
X286002199Y-34293604D02*
X286435533Y-35593604D01*
D10*
D11*
X286095057Y-84912652D02*
X286280771Y-84974557D01*
X286280771Y-84974557D02*
X286342676Y-85036461D01*
X286342676Y-85036461D02*
X286404580Y-85160271D01*
X286404580Y-85160271D02*
X286404580Y-85345985D01*
X286404580Y-85345985D02*
X286342676Y-85469795D01*
X286342676Y-85469795D02*
X286280771Y-85531700D01*
X286280771Y-85531700D02*
X286156961Y-85593604D01*
X286156961Y-85593604D02*
X285661723Y-85593604D01*
X285661723Y-85593604D02*
X285661723Y-84293604D01*
X285661723Y-84293604D02*
X286095057Y-84293604D01*
X286095057Y-84293604D02*
X286218866Y-84355509D01*
X286218866Y-84355509D02*
X286280771Y-84417414D01*
X286280771Y-84417414D02*
X286342676Y-84541223D01*
X286342676Y-84541223D02*
X286342676Y-84665033D01*
X286342676Y-84665033D02*
X286280771Y-84788842D01*
X286280771Y-84788842D02*
X286218866Y-84850747D01*
X286218866Y-84850747D02*
X286095057Y-84912652D01*
X286095057Y-84912652D02*
X285661723Y-84912652D01*
D10*
D11*
X286404580Y-135469795D02*
X286342676Y-135531700D01*
X286342676Y-135531700D02*
X286156961Y-135593604D01*
X286156961Y-135593604D02*
X286033152Y-135593604D01*
X286033152Y-135593604D02*
X285847438Y-135531700D01*
X285847438Y-135531700D02*
X285723628Y-135407890D01*
X285723628Y-135407890D02*
X285661723Y-135284080D01*
X285661723Y-135284080D02*
X285599819Y-135036461D01*
X285599819Y-135036461D02*
X285599819Y-134850747D01*
X285599819Y-134850747D02*
X285661723Y-134603128D01*
X285661723Y-134603128D02*
X285723628Y-134479319D01*
X285723628Y-134479319D02*
X285847438Y-134355509D01*
X285847438Y-134355509D02*
X286033152Y-134293604D01*
X286033152Y-134293604D02*
X286156961Y-134293604D01*
X286156961Y-134293604D02*
X286342676Y-134355509D01*
X286342676Y-134355509D02*
X286404580Y-134417414D01*
D10*
D11*
X285661723Y-185593604D02*
X285661723Y-184293604D01*
X285661723Y-184293604D02*
X285971247Y-184293604D01*
X285971247Y-184293604D02*
X286156961Y-184355509D01*
X286156961Y-184355509D02*
X286280771Y-184479319D01*
X286280771Y-184479319D02*
X286342676Y-184603128D01*
X286342676Y-184603128D02*
X286404580Y-184850747D01*
X286404580Y-184850747D02*
X286404580Y-185036461D01*
X286404580Y-185036461D02*
X286342676Y-185284080D01*
X286342676Y-185284080D02*
X286280771Y-185407890D01*
X286280771Y-185407890D02*
X286156961Y-185531700D01*
X286156961Y-185531700D02*
X285971247Y-185593604D01*
X285971247Y-185593604D02*
X285661723Y-185593604D01*
D10*
D11*
X200458026Y-193793328D02*
X200458026Y-192293328D01*
X200458026Y-192293328D02*
X200815169Y-192293328D01*
X200815169Y-192293328D02*
X201029455Y-192364757D01*
X201029455Y-192364757D02*
X201172312Y-192507614D01*
X201172312Y-192507614D02*
X201243741Y-192650471D01*
X201243741Y-192650471D02*
X201315169Y-192936185D01*
X201315169Y-192936185D02*
X201315169Y-193150471D01*
X201315169Y-193150471D02*
X201243741Y-193436185D01*
X201243741Y-193436185D02*
X201172312Y-193579042D01*
X201172312Y-193579042D02*
X201029455Y-193721900D01*
X201029455Y-193721900D02*
X200815169Y-193793328D01*
X200815169Y-193793328D02*
X200458026Y-193793328D01*
X202600884Y-193793328D02*
X202600884Y-193007614D01*
X202600884Y-193007614D02*
X202529455Y-192864757D01*
X202529455Y-192864757D02*
X202386598Y-192793328D01*
X202386598Y-192793328D02*
X202100884Y-192793328D01*
X202100884Y-192793328D02*
X201958026Y-192864757D01*
X202600884Y-193721900D02*
X202458026Y-193793328D01*
X202458026Y-193793328D02*
X202100884Y-193793328D01*
X202100884Y-193793328D02*
X201958026Y-193721900D01*
X201958026Y-193721900D02*
X201886598Y-193579042D01*
X201886598Y-193579042D02*
X201886598Y-193436185D01*
X201886598Y-193436185D02*
X201958026Y-193293328D01*
X201958026Y-193293328D02*
X202100884Y-193221900D01*
X202100884Y-193221900D02*
X202458026Y-193221900D01*
X202458026Y-193221900D02*
X202600884Y-193150471D01*
X203100884Y-192793328D02*
X203672312Y-192793328D01*
X203315169Y-192293328D02*
X203315169Y-193579042D01*
X203315169Y-193579042D02*
X203386598Y-193721900D01*
X203386598Y-193721900D02*
X203529455Y-193793328D01*
X203529455Y-193793328D02*
X203672312Y-193793328D01*
X204743741Y-193721900D02*
X204600884Y-193793328D01*
X204600884Y-193793328D02*
X204315170Y-193793328D01*
X204315170Y-193793328D02*
X204172312Y-193721900D01*
X204172312Y-193721900D02*
X204100884Y-193579042D01*
X204100884Y-193579042D02*
X204100884Y-193007614D01*
X204100884Y-193007614D02*
X204172312Y-192864757D01*
X204172312Y-192864757D02*
X204315170Y-192793328D01*
X204315170Y-192793328D02*
X204600884Y-192793328D01*
X204600884Y-192793328D02*
X204743741Y-192864757D01*
X204743741Y-192864757D02*
X204815170Y-193007614D01*
X204815170Y-193007614D02*
X204815170Y-193150471D01*
X204815170Y-193150471D02*
X204100884Y-193293328D01*
X205458026Y-193650471D02*
X205529455Y-193721900D01*
X205529455Y-193721900D02*
X205458026Y-193793328D01*
X205458026Y-193793328D02*
X205386598Y-193721900D01*
X205386598Y-193721900D02*
X205458026Y-193650471D01*
X205458026Y-193650471D02*
X205458026Y-193793328D01*
X205458026Y-192864757D02*
X205529455Y-192936185D01*
X205529455Y-192936185D02*
X205458026Y-193007614D01*
X205458026Y-193007614D02*
X205386598Y-192936185D01*
X205386598Y-192936185D02*
X205458026Y-192864757D01*
X205458026Y-192864757D02*
X205458026Y-193007614D01*
D10*
D11*
X177002200Y-194507200D02*
X285002200Y-194507200D01*
D10*
D11*
X178458026Y-196593328D02*
X178458026Y-195093328D01*
X179315169Y-196593328D02*
X178672312Y-195736185D01*
X179315169Y-195093328D02*
X178458026Y-195950471D01*
X179958026Y-196593328D02*
X179958026Y-195593328D01*
X179958026Y-195093328D02*
X179886598Y-195164757D01*
X179886598Y-195164757D02*
X179958026Y-195236185D01*
X179958026Y-195236185D02*
X180029455Y-195164757D01*
X180029455Y-195164757D02*
X179958026Y-195093328D01*
X179958026Y-195093328D02*
X179958026Y-195236185D01*
X181529455Y-196450471D02*
X181458027Y-196521900D01*
X181458027Y-196521900D02*
X181243741Y-196593328D01*
X181243741Y-196593328D02*
X181100884Y-196593328D01*
X181100884Y-196593328D02*
X180886598Y-196521900D01*
X180886598Y-196521900D02*
X180743741Y-196379042D01*
X180743741Y-196379042D02*
X180672312Y-196236185D01*
X180672312Y-196236185D02*
X180600884Y-195950471D01*
X180600884Y-195950471D02*
X180600884Y-195736185D01*
X180600884Y-195736185D02*
X180672312Y-195450471D01*
X180672312Y-195450471D02*
X180743741Y-195307614D01*
X180743741Y-195307614D02*
X180886598Y-195164757D01*
X180886598Y-195164757D02*
X181100884Y-195093328D01*
X181100884Y-195093328D02*
X181243741Y-195093328D01*
X181243741Y-195093328D02*
X181458027Y-195164757D01*
X181458027Y-195164757D02*
X181529455Y-195236185D01*
X182815170Y-196593328D02*
X182815170Y-195807614D01*
X182815170Y-195807614D02*
X182743741Y-195664757D01*
X182743741Y-195664757D02*
X182600884Y-195593328D01*
X182600884Y-195593328D02*
X182315170Y-195593328D01*
X182315170Y-195593328D02*
X182172312Y-195664757D01*
X182815170Y-196521900D02*
X182672312Y-196593328D01*
X182672312Y-196593328D02*
X182315170Y-196593328D01*
X182315170Y-196593328D02*
X182172312Y-196521900D01*
X182172312Y-196521900D02*
X182100884Y-196379042D01*
X182100884Y-196379042D02*
X182100884Y-196236185D01*
X182100884Y-196236185D02*
X182172312Y-196093328D01*
X182172312Y-196093328D02*
X182315170Y-196021900D01*
X182315170Y-196021900D02*
X182672312Y-196021900D01*
X182672312Y-196021900D02*
X182815170Y-195950471D01*
X184172313Y-196593328D02*
X184172313Y-195093328D01*
X184172313Y-196521900D02*
X184029455Y-196593328D01*
X184029455Y-196593328D02*
X183743741Y-196593328D01*
X183743741Y-196593328D02*
X183600884Y-196521900D01*
X183600884Y-196521900D02*
X183529455Y-196450471D01*
X183529455Y-196450471D02*
X183458027Y-196307614D01*
X183458027Y-196307614D02*
X183458027Y-195879042D01*
X183458027Y-195879042D02*
X183529455Y-195736185D01*
X183529455Y-195736185D02*
X183600884Y-195664757D01*
X183600884Y-195664757D02*
X183743741Y-195593328D01*
X183743741Y-195593328D02*
X184029455Y-195593328D01*
X184029455Y-195593328D02*
X184172313Y-195664757D01*
X186029455Y-195807614D02*
X186529455Y-195807614D01*
X186743741Y-196593328D02*
X186029455Y-196593328D01*
X186029455Y-196593328D02*
X186029455Y-195093328D01*
X186029455Y-195093328D02*
X186743741Y-195093328D01*
X187386598Y-196450471D02*
X187458027Y-196521900D01*
X187458027Y-196521900D02*
X187386598Y-196593328D01*
X187386598Y-196593328D02*
X187315170Y-196521900D01*
X187315170Y-196521900D02*
X187386598Y-196450471D01*
X187386598Y-196450471D02*
X187386598Y-196593328D01*
X188100884Y-196593328D02*
X188100884Y-195093328D01*
X188100884Y-195093328D02*
X188458027Y-195093328D01*
X188458027Y-195093328D02*
X188672313Y-195164757D01*
X188672313Y-195164757D02*
X188815170Y-195307614D01*
X188815170Y-195307614D02*
X188886599Y-195450471D01*
X188886599Y-195450471D02*
X188958027Y-195736185D01*
X188958027Y-195736185D02*
X188958027Y-195950471D01*
X188958027Y-195950471D02*
X188886599Y-196236185D01*
X188886599Y-196236185D02*
X188815170Y-196379042D01*
X188815170Y-196379042D02*
X188672313Y-196521900D01*
X188672313Y-196521900D02*
X188458027Y-196593328D01*
X188458027Y-196593328D02*
X188100884Y-196593328D01*
X189600884Y-196450471D02*
X189672313Y-196521900D01*
X189672313Y-196521900D02*
X189600884Y-196593328D01*
X189600884Y-196593328D02*
X189529456Y-196521900D01*
X189529456Y-196521900D02*
X189600884Y-196450471D01*
X189600884Y-196450471D02*
X189600884Y-196593328D01*
X190243742Y-196164757D02*
X190958028Y-196164757D01*
X190100885Y-196593328D02*
X190600885Y-195093328D01*
X190600885Y-195093328D02*
X191100885Y-196593328D01*
X191600884Y-196450471D02*
X191672313Y-196521900D01*
X191672313Y-196521900D02*
X191600884Y-196593328D01*
X191600884Y-196593328D02*
X191529456Y-196521900D01*
X191529456Y-196521900D02*
X191600884Y-196450471D01*
X191600884Y-196450471D02*
X191600884Y-196593328D01*
X193529456Y-196593328D02*
X193815170Y-196593328D01*
X193815170Y-196593328D02*
X193958027Y-196521900D01*
X193958027Y-196521900D02*
X194029456Y-196450471D01*
X194029456Y-196450471D02*
X194172313Y-196236185D01*
X194172313Y-196236185D02*
X194243742Y-195950471D01*
X194243742Y-195950471D02*
X194243742Y-195379042D01*
X194243742Y-195379042D02*
X194172313Y-195236185D01*
X194172313Y-195236185D02*
X194100885Y-195164757D01*
X194100885Y-195164757D02*
X193958027Y-195093328D01*
X193958027Y-195093328D02*
X193672313Y-195093328D01*
X193672313Y-195093328D02*
X193529456Y-195164757D01*
X193529456Y-195164757D02*
X193458027Y-195236185D01*
X193458027Y-195236185D02*
X193386599Y-195379042D01*
X193386599Y-195379042D02*
X193386599Y-195736185D01*
X193386599Y-195736185D02*
X193458027Y-195879042D01*
X193458027Y-195879042D02*
X193529456Y-195950471D01*
X193529456Y-195950471D02*
X193672313Y-196021900D01*
X193672313Y-196021900D02*
X193958027Y-196021900D01*
X193958027Y-196021900D02*
X194100885Y-195950471D01*
X194100885Y-195950471D02*
X194172313Y-195879042D01*
X194172313Y-195879042D02*
X194243742Y-195736185D01*
X194886598Y-196450471D02*
X194958027Y-196521900D01*
X194958027Y-196521900D02*
X194886598Y-196593328D01*
X194886598Y-196593328D02*
X194815170Y-196521900D01*
X194815170Y-196521900D02*
X194886598Y-196450471D01*
X194886598Y-196450471D02*
X194886598Y-196593328D01*
X195886599Y-195093328D02*
X196029456Y-195093328D01*
X196029456Y-195093328D02*
X196172313Y-195164757D01*
X196172313Y-195164757D02*
X196243742Y-195236185D01*
X196243742Y-195236185D02*
X196315170Y-195379042D01*
X196315170Y-195379042D02*
X196386599Y-195664757D01*
X196386599Y-195664757D02*
X196386599Y-196021900D01*
X196386599Y-196021900D02*
X196315170Y-196307614D01*
X196315170Y-196307614D02*
X196243742Y-196450471D01*
X196243742Y-196450471D02*
X196172313Y-196521900D01*
X196172313Y-196521900D02*
X196029456Y-196593328D01*
X196029456Y-196593328D02*
X195886599Y-196593328D01*
X195886599Y-196593328D02*
X195743742Y-196521900D01*
X195743742Y-196521900D02*
X195672313Y-196450471D01*
X195672313Y-196450471D02*
X195600884Y-196307614D01*
X195600884Y-196307614D02*
X195529456Y-196021900D01*
X195529456Y-196021900D02*
X195529456Y-195664757D01*
X195529456Y-195664757D02*
X195600884Y-195379042D01*
X195600884Y-195379042D02*
X195672313Y-195236185D01*
X195672313Y-195236185D02*
X195743742Y-195164757D01*
X195743742Y-195164757D02*
X195886599Y-195093328D01*
X197029455Y-196450471D02*
X197100884Y-196521900D01*
X197100884Y-196521900D02*
X197029455Y-196593328D01*
X197029455Y-196593328D02*
X196958027Y-196521900D01*
X196958027Y-196521900D02*
X197029455Y-196450471D01*
X197029455Y-196450471D02*
X197029455Y-196593328D01*
X197600884Y-195093328D02*
X198600884Y-195093328D01*
X198600884Y-195093328D02*
X197958027Y-196593328D01*
D10*
D11*
X177002200Y-191507200D02*
X285002200Y-191507200D01*
D10*
D12*
X264413853Y-193785528D02*
X263913853Y-193071242D01*
X263556710Y-193785528D02*
X263556710Y-192285528D01*
X263556710Y-192285528D02*
X264128139Y-192285528D01*
X264128139Y-192285528D02*
X264270996Y-192356957D01*
X264270996Y-192356957D02*
X264342425Y-192428385D01*
X264342425Y-192428385D02*
X264413853Y-192571242D01*
X264413853Y-192571242D02*
X264413853Y-192785528D01*
X264413853Y-192785528D02*
X264342425Y-192928385D01*
X264342425Y-192928385D02*
X264270996Y-192999814D01*
X264270996Y-192999814D02*
X264128139Y-193071242D01*
X264128139Y-193071242D02*
X263556710Y-193071242D01*
X265628139Y-193714100D02*
X265485282Y-193785528D01*
X265485282Y-193785528D02*
X265199568Y-193785528D01*
X265199568Y-193785528D02*
X265056710Y-193714100D01*
X265056710Y-193714100D02*
X264985282Y-193571242D01*
X264985282Y-193571242D02*
X264985282Y-192999814D01*
X264985282Y-192999814D02*
X265056710Y-192856957D01*
X265056710Y-192856957D02*
X265199568Y-192785528D01*
X265199568Y-192785528D02*
X265485282Y-192785528D01*
X265485282Y-192785528D02*
X265628139Y-192856957D01*
X265628139Y-192856957D02*
X265699568Y-192999814D01*
X265699568Y-192999814D02*
X265699568Y-193142671D01*
X265699568Y-193142671D02*
X264985282Y-193285528D01*
X266199567Y-192785528D02*
X266556710Y-193785528D01*
X266556710Y-193785528D02*
X266913853Y-192785528D01*
X267485281Y-193642671D02*
X267556710Y-193714100D01*
X267556710Y-193714100D02*
X267485281Y-193785528D01*
X267485281Y-193785528D02*
X267413853Y-193714100D01*
X267413853Y-193714100D02*
X267485281Y-193642671D01*
X267485281Y-193642671D02*
X267485281Y-193785528D01*
X267485281Y-192856957D02*
X267556710Y-192928385D01*
X267556710Y-192928385D02*
X267485281Y-192999814D01*
X267485281Y-192999814D02*
X267413853Y-192928385D01*
X267413853Y-192928385D02*
X267485281Y-192856957D01*
X267485281Y-192856957D02*
X267485281Y-192999814D01*
D10*
D11*
X178386598Y-193721900D02*
X178600884Y-193793328D01*
X178600884Y-193793328D02*
X178958026Y-193793328D01*
X178958026Y-193793328D02*
X179100884Y-193721900D01*
X179100884Y-193721900D02*
X179172312Y-193650471D01*
X179172312Y-193650471D02*
X179243741Y-193507614D01*
X179243741Y-193507614D02*
X179243741Y-193364757D01*
X179243741Y-193364757D02*
X179172312Y-193221900D01*
X179172312Y-193221900D02*
X179100884Y-193150471D01*
X179100884Y-193150471D02*
X178958026Y-193079042D01*
X178958026Y-193079042D02*
X178672312Y-193007614D01*
X178672312Y-193007614D02*
X178529455Y-192936185D01*
X178529455Y-192936185D02*
X178458026Y-192864757D01*
X178458026Y-192864757D02*
X178386598Y-192721900D01*
X178386598Y-192721900D02*
X178386598Y-192579042D01*
X178386598Y-192579042D02*
X178458026Y-192436185D01*
X178458026Y-192436185D02*
X178529455Y-192364757D01*
X178529455Y-192364757D02*
X178672312Y-192293328D01*
X178672312Y-192293328D02*
X179029455Y-192293328D01*
X179029455Y-192293328D02*
X179243741Y-192364757D01*
X179886597Y-193793328D02*
X179886597Y-192793328D01*
X179886597Y-192293328D02*
X179815169Y-192364757D01*
X179815169Y-192364757D02*
X179886597Y-192436185D01*
X179886597Y-192436185D02*
X179958026Y-192364757D01*
X179958026Y-192364757D02*
X179886597Y-192293328D01*
X179886597Y-192293328D02*
X179886597Y-192436185D01*
X180458026Y-192793328D02*
X181243741Y-192793328D01*
X181243741Y-192793328D02*
X180458026Y-193793328D01*
X180458026Y-193793328D02*
X181243741Y-193793328D01*
X182386598Y-193721900D02*
X182243741Y-193793328D01*
X182243741Y-193793328D02*
X181958027Y-193793328D01*
X181958027Y-193793328D02*
X181815169Y-193721900D01*
X181815169Y-193721900D02*
X181743741Y-193579042D01*
X181743741Y-193579042D02*
X181743741Y-193007614D01*
X181743741Y-193007614D02*
X181815169Y-192864757D01*
X181815169Y-192864757D02*
X181958027Y-192793328D01*
X181958027Y-192793328D02*
X182243741Y-192793328D01*
X182243741Y-192793328D02*
X182386598Y-192864757D01*
X182386598Y-192864757D02*
X182458027Y-193007614D01*
X182458027Y-193007614D02*
X182458027Y-193150471D01*
X182458027Y-193150471D02*
X181743741Y-193293328D01*
X183100883Y-193650471D02*
X183172312Y-193721900D01*
X183172312Y-193721900D02*
X183100883Y-193793328D01*
X183100883Y-193793328D02*
X183029455Y-193721900D01*
X183029455Y-193721900D02*
X183100883Y-193650471D01*
X183100883Y-193650471D02*
X183100883Y-193793328D01*
X183100883Y-192864757D02*
X183172312Y-192936185D01*
X183172312Y-192936185D02*
X183100883Y-193007614D01*
X183100883Y-193007614D02*
X183029455Y-192936185D01*
X183029455Y-192936185D02*
X183100883Y-192864757D01*
X183100883Y-192864757D02*
X183100883Y-193007614D01*
X184886598Y-193364757D02*
X185600884Y-193364757D01*
X184743741Y-193793328D02*
X185243741Y-192293328D01*
X185243741Y-192293328D02*
X185743741Y-193793328D01*
X186886598Y-192793328D02*
X186886598Y-193793328D01*
X186529455Y-192221900D02*
X186172312Y-193293328D01*
X186172312Y-193293328D02*
X187100883Y-193293328D01*
D10*
D11*
X263458026Y-196593328D02*
X263458026Y-195093328D01*
X264815170Y-196593328D02*
X264815170Y-195093328D01*
X264815170Y-196521900D02*
X264672312Y-196593328D01*
X264672312Y-196593328D02*
X264386598Y-196593328D01*
X264386598Y-196593328D02*
X264243741Y-196521900D01*
X264243741Y-196521900D02*
X264172312Y-196450471D01*
X264172312Y-196450471D02*
X264100884Y-196307614D01*
X264100884Y-196307614D02*
X264100884Y-195879042D01*
X264100884Y-195879042D02*
X264172312Y-195736185D01*
X264172312Y-195736185D02*
X264243741Y-195664757D01*
X264243741Y-195664757D02*
X264386598Y-195593328D01*
X264386598Y-195593328D02*
X264672312Y-195593328D01*
X264672312Y-195593328D02*
X264815170Y-195664757D01*
X265529455Y-196450471D02*
X265600884Y-196521900D01*
X265600884Y-196521900D02*
X265529455Y-196593328D01*
X265529455Y-196593328D02*
X265458027Y-196521900D01*
X265458027Y-196521900D02*
X265529455Y-196450471D01*
X265529455Y-196450471D02*
X265529455Y-196593328D01*
X265529455Y-195664757D02*
X265600884Y-195736185D01*
X265600884Y-195736185D02*
X265529455Y-195807614D01*
X265529455Y-195807614D02*
X265458027Y-195736185D01*
X265458027Y-195736185D02*
X265529455Y-195664757D01*
X265529455Y-195664757D02*
X265529455Y-195807614D01*
X268100884Y-195093328D02*
X267386598Y-195093328D01*
X267386598Y-195093328D02*
X267315170Y-195807614D01*
X267315170Y-195807614D02*
X267386598Y-195736185D01*
X267386598Y-195736185D02*
X267529456Y-195664757D01*
X267529456Y-195664757D02*
X267886598Y-195664757D01*
X267886598Y-195664757D02*
X268029456Y-195736185D01*
X268029456Y-195736185D02*
X268100884Y-195807614D01*
X268100884Y-195807614D02*
X268172313Y-195950471D01*
X268172313Y-195950471D02*
X268172313Y-196307614D01*
X268172313Y-196307614D02*
X268100884Y-196450471D01*
X268100884Y-196450471D02*
X268029456Y-196521900D01*
X268029456Y-196521900D02*
X267886598Y-196593328D01*
X267886598Y-196593328D02*
X267529456Y-196593328D01*
X267529456Y-196593328D02*
X267386598Y-196521900D01*
X267386598Y-196521900D02*
X267315170Y-196450471D01*
X269886598Y-195021900D02*
X268600884Y-196950471D01*
X270458027Y-196593328D02*
X270743741Y-196593328D01*
X270743741Y-196593328D02*
X270886598Y-196521900D01*
X270886598Y-196521900D02*
X270958027Y-196450471D01*
X270958027Y-196450471D02*
X271100884Y-196236185D01*
X271100884Y-196236185D02*
X271172313Y-195950471D01*
X271172313Y-195950471D02*
X271172313Y-195379042D01*
X271172313Y-195379042D02*
X271100884Y-195236185D01*
X271100884Y-195236185D02*
X271029456Y-195164757D01*
X271029456Y-195164757D02*
X270886598Y-195093328D01*
X270886598Y-195093328D02*
X270600884Y-195093328D01*
X270600884Y-195093328D02*
X270458027Y-195164757D01*
X270458027Y-195164757D02*
X270386598Y-195236185D01*
X270386598Y-195236185D02*
X270315170Y-195379042D01*
X270315170Y-195379042D02*
X270315170Y-195736185D01*
X270315170Y-195736185D02*
X270386598Y-195879042D01*
X270386598Y-195879042D02*
X270458027Y-195950471D01*
X270458027Y-195950471D02*
X270600884Y-196021900D01*
X270600884Y-196021900D02*
X270886598Y-196021900D01*
X270886598Y-196021900D02*
X271029456Y-195950471D01*
X271029456Y-195950471D02*
X271100884Y-195879042D01*
X271100884Y-195879042D02*
X271172313Y-195736185D01*
D10*
D11*
X177002200Y-187507200D02*
X285002200Y-187507200D01*
D10*
D13*
X178693928Y-188211638D02*
X179836785Y-188211638D01*
X179015357Y-190211638D02*
X179265357Y-188211638D01*
X180253452Y-190211638D02*
X180420119Y-188878304D01*
X180503452Y-188211638D02*
X180396309Y-188306876D01*
X180396309Y-188306876D02*
X180479643Y-188402114D01*
X180479643Y-188402114D02*
X180586786Y-188306876D01*
X180586786Y-188306876D02*
X180503452Y-188211638D01*
X180503452Y-188211638D02*
X180479643Y-188402114D01*
X181086786Y-188878304D02*
X181848690Y-188878304D01*
X181455833Y-188211638D02*
X181241548Y-189925923D01*
X181241548Y-189925923D02*
X181312976Y-190116400D01*
X181312976Y-190116400D02*
X181491548Y-190211638D01*
X181491548Y-190211638D02*
X181682024Y-190211638D01*
X182634405Y-190211638D02*
X182455833Y-190116400D01*
X182455833Y-190116400D02*
X182384405Y-189925923D01*
X182384405Y-189925923D02*
X182598690Y-188211638D01*
X184170119Y-190116400D02*
X183967738Y-190211638D01*
X183967738Y-190211638D02*
X183586785Y-190211638D01*
X183586785Y-190211638D02*
X183408214Y-190116400D01*
X183408214Y-190116400D02*
X183336785Y-189925923D01*
X183336785Y-189925923D02*
X183432024Y-189164019D01*
X183432024Y-189164019D02*
X183551071Y-188973542D01*
X183551071Y-188973542D02*
X183753452Y-188878304D01*
X183753452Y-188878304D02*
X184134404Y-188878304D01*
X184134404Y-188878304D02*
X184312976Y-188973542D01*
X184312976Y-188973542D02*
X184384404Y-189164019D01*
X184384404Y-189164019D02*
X184360595Y-189354495D01*
X184360595Y-189354495D02*
X183384404Y-189544971D01*
X185134405Y-190021161D02*
X185217738Y-190116400D01*
X185217738Y-190116400D02*
X185110595Y-190211638D01*
X185110595Y-190211638D02*
X185027262Y-190116400D01*
X185027262Y-190116400D02*
X185134405Y-190021161D01*
X185134405Y-190021161D02*
X185110595Y-190211638D01*
X185265357Y-188973542D02*
X185348690Y-189068780D01*
X185348690Y-189068780D02*
X185241548Y-189164019D01*
X185241548Y-189164019D02*
X185158214Y-189068780D01*
X185158214Y-189068780D02*
X185265357Y-188973542D01*
X185265357Y-188973542D02*
X185241548Y-189164019D01*
D10*
D11*
X178958026Y-185607614D02*
X178458026Y-185607614D01*
X178458026Y-186393328D02*
X178458026Y-184893328D01*
X178458026Y-184893328D02*
X179172312Y-184893328D01*
X179743740Y-186393328D02*
X179743740Y-185393328D01*
X179743740Y-184893328D02*
X179672312Y-184964757D01*
X179672312Y-184964757D02*
X179743740Y-185036185D01*
X179743740Y-185036185D02*
X179815169Y-184964757D01*
X179815169Y-184964757D02*
X179743740Y-184893328D01*
X179743740Y-184893328D02*
X179743740Y-185036185D01*
X180672312Y-186393328D02*
X180529455Y-186321900D01*
X180529455Y-186321900D02*
X180458026Y-186179042D01*
X180458026Y-186179042D02*
X180458026Y-184893328D01*
X181815169Y-186321900D02*
X181672312Y-186393328D01*
X181672312Y-186393328D02*
X181386598Y-186393328D01*
X181386598Y-186393328D02*
X181243740Y-186321900D01*
X181243740Y-186321900D02*
X181172312Y-186179042D01*
X181172312Y-186179042D02*
X181172312Y-185607614D01*
X181172312Y-185607614D02*
X181243740Y-185464757D01*
X181243740Y-185464757D02*
X181386598Y-185393328D01*
X181386598Y-185393328D02*
X181672312Y-185393328D01*
X181672312Y-185393328D02*
X181815169Y-185464757D01*
X181815169Y-185464757D02*
X181886598Y-185607614D01*
X181886598Y-185607614D02*
X181886598Y-185750471D01*
X181886598Y-185750471D02*
X181172312Y-185893328D01*
X182529454Y-186250471D02*
X182600883Y-186321900D01*
X182600883Y-186321900D02*
X182529454Y-186393328D01*
X182529454Y-186393328D02*
X182458026Y-186321900D01*
X182458026Y-186321900D02*
X182529454Y-186250471D01*
X182529454Y-186250471D02*
X182529454Y-186393328D01*
X182529454Y-185464757D02*
X182600883Y-185536185D01*
X182600883Y-185536185D02*
X182529454Y-185607614D01*
X182529454Y-185607614D02*
X182458026Y-185536185D01*
X182458026Y-185536185D02*
X182529454Y-185464757D01*
X182529454Y-185464757D02*
X182529454Y-185607614D01*
X185243740Y-186393328D02*
X184743740Y-185679042D01*
X184386597Y-186393328D02*
X184386597Y-184893328D01*
X184386597Y-184893328D02*
X184958026Y-184893328D01*
X184958026Y-184893328D02*
X185100883Y-184964757D01*
X185100883Y-184964757D02*
X185172312Y-185036185D01*
X185172312Y-185036185D02*
X185243740Y-185179042D01*
X185243740Y-185179042D02*
X185243740Y-185393328D01*
X185243740Y-185393328D02*
X185172312Y-185536185D01*
X185172312Y-185536185D02*
X185100883Y-185607614D01*
X185100883Y-185607614D02*
X184958026Y-185679042D01*
X184958026Y-185679042D02*
X184386597Y-185679042D01*
X186458026Y-186321900D02*
X186315169Y-186393328D01*
X186315169Y-186393328D02*
X186029455Y-186393328D01*
X186029455Y-186393328D02*
X185886597Y-186321900D01*
X185886597Y-186321900D02*
X185815169Y-186179042D01*
X185815169Y-186179042D02*
X185815169Y-185607614D01*
X185815169Y-185607614D02*
X185886597Y-185464757D01*
X185886597Y-185464757D02*
X186029455Y-185393328D01*
X186029455Y-185393328D02*
X186315169Y-185393328D01*
X186315169Y-185393328D02*
X186458026Y-185464757D01*
X186458026Y-185464757D02*
X186529455Y-185607614D01*
X186529455Y-185607614D02*
X186529455Y-185750471D01*
X186529455Y-185750471D02*
X185815169Y-185893328D01*
X187386597Y-186393328D02*
X187243740Y-186321900D01*
X187243740Y-186321900D02*
X187172311Y-186179042D01*
X187172311Y-186179042D02*
X187172311Y-184893328D01*
X188600883Y-186393328D02*
X188600883Y-185607614D01*
X188600883Y-185607614D02*
X188529454Y-185464757D01*
X188529454Y-185464757D02*
X188386597Y-185393328D01*
X188386597Y-185393328D02*
X188100883Y-185393328D01*
X188100883Y-185393328D02*
X187958025Y-185464757D01*
X188600883Y-186321900D02*
X188458025Y-186393328D01*
X188458025Y-186393328D02*
X188100883Y-186393328D01*
X188100883Y-186393328D02*
X187958025Y-186321900D01*
X187958025Y-186321900D02*
X187886597Y-186179042D01*
X187886597Y-186179042D02*
X187886597Y-186036185D01*
X187886597Y-186036185D02*
X187958025Y-185893328D01*
X187958025Y-185893328D02*
X188100883Y-185821900D01*
X188100883Y-185821900D02*
X188458025Y-185821900D01*
X188458025Y-185821900D02*
X188600883Y-185750471D01*
X189172311Y-185393328D02*
X189529454Y-186393328D01*
X189886597Y-185393328D02*
X189529454Y-186393328D01*
X189529454Y-186393328D02*
X189386597Y-186750471D01*
X189386597Y-186750471D02*
X189315168Y-186821900D01*
X189315168Y-186821900D02*
X189172311Y-186893328D01*
X190100883Y-186536185D02*
X191243740Y-186536185D01*
X191600882Y-186393328D02*
X191600882Y-184893328D01*
X191600882Y-185607614D02*
X192458025Y-185607614D01*
X192458025Y-186393328D02*
X192458025Y-184893328D01*
X192815169Y-186536185D02*
X193958026Y-186536185D01*
X194815168Y-185607614D02*
X195029454Y-185679042D01*
X195029454Y-185679042D02*
X195100883Y-185750471D01*
X195100883Y-185750471D02*
X195172311Y-185893328D01*
X195172311Y-185893328D02*
X195172311Y-186107614D01*
X195172311Y-186107614D02*
X195100883Y-186250471D01*
X195100883Y-186250471D02*
X195029454Y-186321900D01*
X195029454Y-186321900D02*
X194886597Y-186393328D01*
X194886597Y-186393328D02*
X194315168Y-186393328D01*
X194315168Y-186393328D02*
X194315168Y-184893328D01*
X194315168Y-184893328D02*
X194815168Y-184893328D01*
X194815168Y-184893328D02*
X194958026Y-184964757D01*
X194958026Y-184964757D02*
X195029454Y-185036185D01*
X195029454Y-185036185D02*
X195100883Y-185179042D01*
X195100883Y-185179042D02*
X195100883Y-185321900D01*
X195100883Y-185321900D02*
X195029454Y-185464757D01*
X195029454Y-185464757D02*
X194958026Y-185536185D01*
X194958026Y-185536185D02*
X194815168Y-185607614D01*
X194815168Y-185607614D02*
X194315168Y-185607614D01*
X196672311Y-186393328D02*
X196172311Y-185679042D01*
X195815168Y-186393328D02*
X195815168Y-184893328D01*
X195815168Y-184893328D02*
X196386597Y-184893328D01*
X196386597Y-184893328D02*
X196529454Y-184964757D01*
X196529454Y-184964757D02*
X196600883Y-185036185D01*
X196600883Y-185036185D02*
X196672311Y-185179042D01*
X196672311Y-185179042D02*
X196672311Y-185393328D01*
X196672311Y-185393328D02*
X196600883Y-185536185D01*
X196600883Y-185536185D02*
X196529454Y-185607614D01*
X196529454Y-185607614D02*
X196386597Y-185679042D01*
X196386597Y-185679042D02*
X195815168Y-185679042D01*
X197315168Y-186393328D02*
X197315168Y-184893328D01*
X198029454Y-186393328D02*
X198029454Y-184893328D01*
X198029454Y-184893328D02*
X198386597Y-184893328D01*
X198386597Y-184893328D02*
X198600883Y-184964757D01*
X198600883Y-184964757D02*
X198743740Y-185107614D01*
X198743740Y-185107614D02*
X198815169Y-185250471D01*
X198815169Y-185250471D02*
X198886597Y-185536185D01*
X198886597Y-185536185D02*
X198886597Y-185750471D01*
X198886597Y-185750471D02*
X198815169Y-186036185D01*
X198815169Y-186036185D02*
X198743740Y-186179042D01*
X198743740Y-186179042D02*
X198600883Y-186321900D01*
X198600883Y-186321900D02*
X198386597Y-186393328D01*
X198386597Y-186393328D02*
X198029454Y-186393328D01*
X200315169Y-184964757D02*
X200172312Y-184893328D01*
X200172312Y-184893328D02*
X199958026Y-184893328D01*
X199958026Y-184893328D02*
X199743740Y-184964757D01*
X199743740Y-184964757D02*
X199600883Y-185107614D01*
X199600883Y-185107614D02*
X199529454Y-185250471D01*
X199529454Y-185250471D02*
X199458026Y-185536185D01*
X199458026Y-185536185D02*
X199458026Y-185750471D01*
X199458026Y-185750471D02*
X199529454Y-186036185D01*
X199529454Y-186036185D02*
X199600883Y-186179042D01*
X199600883Y-186179042D02*
X199743740Y-186321900D01*
X199743740Y-186321900D02*
X199958026Y-186393328D01*
X199958026Y-186393328D02*
X200100883Y-186393328D01*
X200100883Y-186393328D02*
X200315169Y-186321900D01*
X200315169Y-186321900D02*
X200386597Y-186250471D01*
X200386597Y-186250471D02*
X200386597Y-185750471D01*
X200386597Y-185750471D02*
X200100883Y-185750471D01*
X201029454Y-185607614D02*
X201529454Y-185607614D01*
X201743740Y-186393328D02*
X201029454Y-186393328D01*
X201029454Y-186393328D02*
X201029454Y-184893328D01*
X201029454Y-184893328D02*
X201743740Y-184893328D01*
X202386597Y-186250471D02*
X202458026Y-186321900D01*
X202458026Y-186321900D02*
X202386597Y-186393328D01*
X202386597Y-186393328D02*
X202315169Y-186321900D01*
X202315169Y-186321900D02*
X202386597Y-186250471D01*
X202386597Y-186250471D02*
X202386597Y-186393328D01*
X203100883Y-186393328D02*
X203100883Y-184893328D01*
X203243741Y-185821900D02*
X203672312Y-186393328D01*
X203672312Y-185393328D02*
X203100883Y-185964757D01*
X204315169Y-186393328D02*
X204315169Y-185393328D01*
X204315169Y-184893328D02*
X204243741Y-184964757D01*
X204243741Y-184964757D02*
X204315169Y-185036185D01*
X204315169Y-185036185D02*
X204386598Y-184964757D01*
X204386598Y-184964757D02*
X204315169Y-184893328D01*
X204315169Y-184893328D02*
X204315169Y-185036185D01*
X205672313Y-186321900D02*
X205529455Y-186393328D01*
X205529455Y-186393328D02*
X205243741Y-186393328D01*
X205243741Y-186393328D02*
X205100884Y-186321900D01*
X205100884Y-186321900D02*
X205029455Y-186250471D01*
X205029455Y-186250471D02*
X204958027Y-186107614D01*
X204958027Y-186107614D02*
X204958027Y-185679042D01*
X204958027Y-185679042D02*
X205029455Y-185536185D01*
X205029455Y-185536185D02*
X205100884Y-185464757D01*
X205100884Y-185464757D02*
X205243741Y-185393328D01*
X205243741Y-185393328D02*
X205529455Y-185393328D01*
X205529455Y-185393328D02*
X205672313Y-185464757D01*
X206958027Y-186393328D02*
X206958027Y-185607614D01*
X206958027Y-185607614D02*
X206886598Y-185464757D01*
X206886598Y-185464757D02*
X206743741Y-185393328D01*
X206743741Y-185393328D02*
X206458027Y-185393328D01*
X206458027Y-185393328D02*
X206315169Y-185464757D01*
X206958027Y-186321900D02*
X206815169Y-186393328D01*
X206815169Y-186393328D02*
X206458027Y-186393328D01*
X206458027Y-186393328D02*
X206315169Y-186321900D01*
X206315169Y-186321900D02*
X206243741Y-186179042D01*
X206243741Y-186179042D02*
X206243741Y-186036185D01*
X206243741Y-186036185D02*
X206315169Y-185893328D01*
X206315169Y-185893328D02*
X206458027Y-185821900D01*
X206458027Y-185821900D02*
X206815169Y-185821900D01*
X206815169Y-185821900D02*
X206958027Y-185750471D01*
X208315170Y-186393328D02*
X208315170Y-184893328D01*
X208315170Y-186321900D02*
X208172312Y-186393328D01*
X208172312Y-186393328D02*
X207886598Y-186393328D01*
X207886598Y-186393328D02*
X207743741Y-186321900D01*
X207743741Y-186321900D02*
X207672312Y-186250471D01*
X207672312Y-186250471D02*
X207600884Y-186107614D01*
X207600884Y-186107614D02*
X207600884Y-185679042D01*
X207600884Y-185679042D02*
X207672312Y-185536185D01*
X207672312Y-185536185D02*
X207743741Y-185464757D01*
X207743741Y-185464757D02*
X207886598Y-185393328D01*
X207886598Y-185393328D02*
X208172312Y-185393328D01*
X208172312Y-185393328D02*
X208315170Y-185464757D01*
X208672313Y-186536185D02*
X209815170Y-186536185D01*
X210172312Y-185393328D02*
X210172312Y-186893328D01*
X210172312Y-185464757D02*
X210315170Y-185393328D01*
X210315170Y-185393328D02*
X210600884Y-185393328D01*
X210600884Y-185393328D02*
X210743741Y-185464757D01*
X210743741Y-185464757D02*
X210815170Y-185536185D01*
X210815170Y-185536185D02*
X210886598Y-185679042D01*
X210886598Y-185679042D02*
X210886598Y-186107614D01*
X210886598Y-186107614D02*
X210815170Y-186250471D01*
X210815170Y-186250471D02*
X210743741Y-186321900D01*
X210743741Y-186321900D02*
X210600884Y-186393328D01*
X210600884Y-186393328D02*
X210315170Y-186393328D01*
X210315170Y-186393328D02*
X210172312Y-186321900D01*
X212172313Y-186321900D02*
X212029455Y-186393328D01*
X212029455Y-186393328D02*
X211743741Y-186393328D01*
X211743741Y-186393328D02*
X211600884Y-186321900D01*
X211600884Y-186321900D02*
X211529455Y-186250471D01*
X211529455Y-186250471D02*
X211458027Y-186107614D01*
X211458027Y-186107614D02*
X211458027Y-185679042D01*
X211458027Y-185679042D02*
X211529455Y-185536185D01*
X211529455Y-185536185D02*
X211600884Y-185464757D01*
X211600884Y-185464757D02*
X211743741Y-185393328D01*
X211743741Y-185393328D02*
X212029455Y-185393328D01*
X212029455Y-185393328D02*
X212172313Y-185464757D01*
X212815169Y-186393328D02*
X212815169Y-184893328D01*
X212815169Y-185464757D02*
X212958027Y-185393328D01*
X212958027Y-185393328D02*
X213243741Y-185393328D01*
X213243741Y-185393328D02*
X213386598Y-185464757D01*
X213386598Y-185464757D02*
X213458027Y-185536185D01*
X213458027Y-185536185D02*
X213529455Y-185679042D01*
X213529455Y-185679042D02*
X213529455Y-186107614D01*
X213529455Y-186107614D02*
X213458027Y-186250471D01*
X213458027Y-186250471D02*
X213386598Y-186321900D01*
X213386598Y-186321900D02*
X213243741Y-186393328D01*
X213243741Y-186393328D02*
X212958027Y-186393328D01*
X212958027Y-186393328D02*
X212815169Y-186321900D01*
D10*
D11*
X177002200Y-181507200D02*
X285002200Y-181507200D01*
D10*
D11*
X178386598Y-183621900D02*
X178600884Y-183693328D01*
X178600884Y-183693328D02*
X178958026Y-183693328D01*
X178958026Y-183693328D02*
X179100884Y-183621900D01*
X179100884Y-183621900D02*
X179172312Y-183550471D01*
X179172312Y-183550471D02*
X179243741Y-183407614D01*
X179243741Y-183407614D02*
X179243741Y-183264757D01*
X179243741Y-183264757D02*
X179172312Y-183121900D01*
X179172312Y-183121900D02*
X179100884Y-183050471D01*
X179100884Y-183050471D02*
X178958026Y-182979042D01*
X178958026Y-182979042D02*
X178672312Y-182907614D01*
X178672312Y-182907614D02*
X178529455Y-182836185D01*
X178529455Y-182836185D02*
X178458026Y-182764757D01*
X178458026Y-182764757D02*
X178386598Y-182621900D01*
X178386598Y-182621900D02*
X178386598Y-182479042D01*
X178386598Y-182479042D02*
X178458026Y-182336185D01*
X178458026Y-182336185D02*
X178529455Y-182264757D01*
X178529455Y-182264757D02*
X178672312Y-182193328D01*
X178672312Y-182193328D02*
X179029455Y-182193328D01*
X179029455Y-182193328D02*
X179243741Y-182264757D01*
X179886597Y-183693328D02*
X179886597Y-182193328D01*
X180529455Y-183693328D02*
X180529455Y-182907614D01*
X180529455Y-182907614D02*
X180458026Y-182764757D01*
X180458026Y-182764757D02*
X180315169Y-182693328D01*
X180315169Y-182693328D02*
X180100883Y-182693328D01*
X180100883Y-182693328D02*
X179958026Y-182764757D01*
X179958026Y-182764757D02*
X179886597Y-182836185D01*
X181815169Y-183621900D02*
X181672312Y-183693328D01*
X181672312Y-183693328D02*
X181386598Y-183693328D01*
X181386598Y-183693328D02*
X181243740Y-183621900D01*
X181243740Y-183621900D02*
X181172312Y-183479042D01*
X181172312Y-183479042D02*
X181172312Y-182907614D01*
X181172312Y-182907614D02*
X181243740Y-182764757D01*
X181243740Y-182764757D02*
X181386598Y-182693328D01*
X181386598Y-182693328D02*
X181672312Y-182693328D01*
X181672312Y-182693328D02*
X181815169Y-182764757D01*
X181815169Y-182764757D02*
X181886598Y-182907614D01*
X181886598Y-182907614D02*
X181886598Y-183050471D01*
X181886598Y-183050471D02*
X181172312Y-183193328D01*
X183100883Y-183621900D02*
X182958026Y-183693328D01*
X182958026Y-183693328D02*
X182672312Y-183693328D01*
X182672312Y-183693328D02*
X182529454Y-183621900D01*
X182529454Y-183621900D02*
X182458026Y-183479042D01*
X182458026Y-183479042D02*
X182458026Y-182907614D01*
X182458026Y-182907614D02*
X182529454Y-182764757D01*
X182529454Y-182764757D02*
X182672312Y-182693328D01*
X182672312Y-182693328D02*
X182958026Y-182693328D01*
X182958026Y-182693328D02*
X183100883Y-182764757D01*
X183100883Y-182764757D02*
X183172312Y-182907614D01*
X183172312Y-182907614D02*
X183172312Y-183050471D01*
X183172312Y-183050471D02*
X182458026Y-183193328D01*
X183600883Y-182693328D02*
X184172311Y-182693328D01*
X183815168Y-182193328D02*
X183815168Y-183479042D01*
X183815168Y-183479042D02*
X183886597Y-183621900D01*
X183886597Y-183621900D02*
X184029454Y-183693328D01*
X184029454Y-183693328D02*
X184172311Y-183693328D01*
X184672311Y-183550471D02*
X184743740Y-183621900D01*
X184743740Y-183621900D02*
X184672311Y-183693328D01*
X184672311Y-183693328D02*
X184600883Y-183621900D01*
X184600883Y-183621900D02*
X184672311Y-183550471D01*
X184672311Y-183550471D02*
X184672311Y-183693328D01*
X184672311Y-182764757D02*
X184743740Y-182836185D01*
X184743740Y-182836185D02*
X184672311Y-182907614D01*
X184672311Y-182907614D02*
X184600883Y-182836185D01*
X184600883Y-182836185D02*
X184672311Y-182764757D01*
X184672311Y-182764757D02*
X184672311Y-182907614D01*
D10*
D11*
X197002200Y-191507200D02*
X197002200Y-194507200D01*
D10*
D11*
X261002200Y-191507200D02*
X261002200Y-198007200D01*
X157571905Y-77050057D02*
X157619524Y-77002438D01*
X157619524Y-77002438D02*
X157714762Y-76954819D01*
X157714762Y-76954819D02*
X157952857Y-76954819D01*
X157952857Y-76954819D02*
X158048095Y-77002438D01*
X158048095Y-77002438D02*
X158095714Y-77050057D01*
X158095714Y-77050057D02*
X158143333Y-77145295D01*
X158143333Y-77145295D02*
X158143333Y-77240533D01*
X158143333Y-77240533D02*
X158095714Y-77383390D01*
X158095714Y-77383390D02*
X157524286Y-77954819D01*
X157524286Y-77954819D02*
X158143333Y-77954819D01*
X158524286Y-77050057D02*
X158571905Y-77002438D01*
X158571905Y-77002438D02*
X158667143Y-76954819D01*
X158667143Y-76954819D02*
X158905238Y-76954819D01*
X158905238Y-76954819D02*
X159000476Y-77002438D01*
X159000476Y-77002438D02*
X159048095Y-77050057D01*
X159048095Y-77050057D02*
X159095714Y-77145295D01*
X159095714Y-77145295D02*
X159095714Y-77240533D01*
X159095714Y-77240533D02*
X159048095Y-77383390D01*
X159048095Y-77383390D02*
X158476667Y-77954819D01*
X158476667Y-77954819D02*
X159095714Y-77954819D01*
X159714762Y-76954819D02*
X159810000Y-76954819D01*
X159810000Y-76954819D02*
X159905238Y-77002438D01*
X159905238Y-77002438D02*
X159952857Y-77050057D01*
X159952857Y-77050057D02*
X160000476Y-77145295D01*
X160000476Y-77145295D02*
X160048095Y-77335771D01*
X160048095Y-77335771D02*
X160048095Y-77573866D01*
X160048095Y-77573866D02*
X160000476Y-77764342D01*
X160000476Y-77764342D02*
X159952857Y-77859580D01*
X159952857Y-77859580D02*
X159905238Y-77907200D01*
X159905238Y-77907200D02*
X159810000Y-77954819D01*
X159810000Y-77954819D02*
X159714762Y-77954819D01*
X159714762Y-77954819D02*
X159619524Y-77907200D01*
X159619524Y-77907200D02*
X159571905Y-77859580D01*
X159571905Y-77859580D02*
X159524286Y-77764342D01*
X159524286Y-77764342D02*
X159476667Y-77573866D01*
X159476667Y-77573866D02*
X159476667Y-77335771D01*
X159476667Y-77335771D02*
X159524286Y-77145295D01*
X159524286Y-77145295D02*
X159571905Y-77050057D01*
X159571905Y-77050057D02*
X159619524Y-77002438D01*
X159619524Y-77002438D02*
X159714762Y-76954819D01*
X128361905Y-99704819D02*
X128361905Y-98704819D01*
X128933333Y-99704819D02*
X128504762Y-99133390D01*
X128933333Y-98704819D02*
X128361905Y-99276247D01*
X129314286Y-98800057D02*
X129361905Y-98752438D01*
X129361905Y-98752438D02*
X129457143Y-98704819D01*
X129457143Y-98704819D02*
X129695238Y-98704819D01*
X129695238Y-98704819D02*
X129790476Y-98752438D01*
X129790476Y-98752438D02*
X129838095Y-98800057D01*
X129838095Y-98800057D02*
X129885714Y-98895295D01*
X129885714Y-98895295D02*
X129885714Y-98990533D01*
X129885714Y-98990533D02*
X129838095Y-99133390D01*
X129838095Y-99133390D02*
X129266667Y-99704819D01*
X129266667Y-99704819D02*
X129885714Y-99704819D01*
X166785714Y-116410057D02*
X166833333Y-116362438D01*
X166833333Y-116362438D02*
X166928571Y-116314819D01*
X166928571Y-116314819D02*
X167166666Y-116314819D01*
X167166666Y-116314819D02*
X167261904Y-116362438D01*
X167261904Y-116362438D02*
X167309523Y-116410057D01*
X167309523Y-116410057D02*
X167357142Y-116505295D01*
X167357142Y-116505295D02*
X167357142Y-116600533D01*
X167357142Y-116600533D02*
X167309523Y-116743390D01*
X167309523Y-116743390D02*
X166738095Y-117314819D01*
X166738095Y-117314819D02*
X167357142Y-117314819D01*
X167785714Y-117314819D02*
X167785714Y-116314819D01*
X167785714Y-116314819D02*
X168357142Y-117314819D01*
X168357142Y-117314819D02*
X168357142Y-116314819D01*
X168738095Y-116314819D02*
X169357142Y-116314819D01*
X169357142Y-116314819D02*
X169023809Y-116695771D01*
X169023809Y-116695771D02*
X169166666Y-116695771D01*
X169166666Y-116695771D02*
X169261904Y-116743390D01*
X169261904Y-116743390D02*
X169309523Y-116791009D01*
X169309523Y-116791009D02*
X169357142Y-116886247D01*
X169357142Y-116886247D02*
X169357142Y-117124342D01*
X169357142Y-117124342D02*
X169309523Y-117219580D01*
X169309523Y-117219580D02*
X169261904Y-117267200D01*
X169261904Y-117267200D02*
X169166666Y-117314819D01*
X169166666Y-117314819D02*
X168880952Y-117314819D01*
X168880952Y-117314819D02*
X168785714Y-117267200D01*
X168785714Y-117267200D02*
X168738095Y-117219580D01*
X169833333Y-117314819D02*
X170023809Y-117314819D01*
X170023809Y-117314819D02*
X170119047Y-117267200D01*
X170119047Y-117267200D02*
X170166666Y-117219580D01*
X170166666Y-117219580D02*
X170261904Y-117076723D01*
X170261904Y-117076723D02*
X170309523Y-116886247D01*
X170309523Y-116886247D02*
X170309523Y-116505295D01*
X170309523Y-116505295D02*
X170261904Y-116410057D01*
X170261904Y-116410057D02*
X170214285Y-116362438D01*
X170214285Y-116362438D02*
X170119047Y-116314819D01*
X170119047Y-116314819D02*
X169928571Y-116314819D01*
X169928571Y-116314819D02*
X169833333Y-116362438D01*
X169833333Y-116362438D02*
X169785714Y-116410057D01*
X169785714Y-116410057D02*
X169738095Y-116505295D01*
X169738095Y-116505295D02*
X169738095Y-116743390D01*
X169738095Y-116743390D02*
X169785714Y-116838628D01*
X169785714Y-116838628D02*
X169833333Y-116886247D01*
X169833333Y-116886247D02*
X169928571Y-116933866D01*
X169928571Y-116933866D02*
X170119047Y-116933866D01*
X170119047Y-116933866D02*
X170214285Y-116886247D01*
X170214285Y-116886247D02*
X170261904Y-116838628D01*
X170261904Y-116838628D02*
X170309523Y-116743390D01*
X170928571Y-116314819D02*
X171023809Y-116314819D01*
X171023809Y-116314819D02*
X171119047Y-116362438D01*
X171119047Y-116362438D02*
X171166666Y-116410057D01*
X171166666Y-116410057D02*
X171214285Y-116505295D01*
X171214285Y-116505295D02*
X171261904Y-116695771D01*
X171261904Y-116695771D02*
X171261904Y-116933866D01*
X171261904Y-116933866D02*
X171214285Y-117124342D01*
X171214285Y-117124342D02*
X171166666Y-117219580D01*
X171166666Y-117219580D02*
X171119047Y-117267200D01*
X171119047Y-117267200D02*
X171023809Y-117314819D01*
X171023809Y-117314819D02*
X170928571Y-117314819D01*
X170928571Y-117314819D02*
X170833333Y-117267200D01*
X170833333Y-117267200D02*
X170785714Y-117219580D01*
X170785714Y-117219580D02*
X170738095Y-117124342D01*
X170738095Y-117124342D02*
X170690476Y-116933866D01*
X170690476Y-116933866D02*
X170690476Y-116695771D01*
X170690476Y-116695771D02*
X170738095Y-116505295D01*
X170738095Y-116505295D02*
X170785714Y-116410057D01*
X170785714Y-116410057D02*
X170833333Y-116362438D01*
X170833333Y-116362438D02*
X170928571Y-116314819D01*
X172119047Y-116648152D02*
X172119047Y-117314819D01*
X171880952Y-116267200D02*
X171642857Y-116981485D01*
X171642857Y-116981485D02*
X172261904Y-116981485D01*
X183904762Y-122092319D02*
X184238095Y-123092319D01*
X184238095Y-123092319D02*
X184571428Y-122092319D01*
X185476190Y-122997080D02*
X185428571Y-123044700D01*
X185428571Y-123044700D02*
X185285714Y-123092319D01*
X185285714Y-123092319D02*
X185190476Y-123092319D01*
X185190476Y-123092319D02*
X185047619Y-123044700D01*
X185047619Y-123044700D02*
X184952381Y-122949461D01*
X184952381Y-122949461D02*
X184904762Y-122854223D01*
X184904762Y-122854223D02*
X184857143Y-122663747D01*
X184857143Y-122663747D02*
X184857143Y-122520890D01*
X184857143Y-122520890D02*
X184904762Y-122330414D01*
X184904762Y-122330414D02*
X184952381Y-122235176D01*
X184952381Y-122235176D02*
X185047619Y-122139938D01*
X185047619Y-122139938D02*
X185190476Y-122092319D01*
X185190476Y-122092319D02*
X185285714Y-122092319D01*
X185285714Y-122092319D02*
X185428571Y-122139938D01*
X185428571Y-122139938D02*
X185476190Y-122187557D01*
X186476190Y-122997080D02*
X186428571Y-123044700D01*
X186428571Y-123044700D02*
X186285714Y-123092319D01*
X186285714Y-123092319D02*
X186190476Y-123092319D01*
X186190476Y-123092319D02*
X186047619Y-123044700D01*
X186047619Y-123044700D02*
X185952381Y-122949461D01*
X185952381Y-122949461D02*
X185904762Y-122854223D01*
X185904762Y-122854223D02*
X185857143Y-122663747D01*
X185857143Y-122663747D02*
X185857143Y-122520890D01*
X185857143Y-122520890D02*
X185904762Y-122330414D01*
X185904762Y-122330414D02*
X185952381Y-122235176D01*
X185952381Y-122235176D02*
X186047619Y-122139938D01*
X186047619Y-122139938D02*
X186190476Y-122092319D01*
X186190476Y-122092319D02*
X186285714Y-122092319D01*
X186285714Y-122092319D02*
X186428571Y-122139938D01*
X186428571Y-122139938D02*
X186476190Y-122187557D01*
X186666667Y-123187557D02*
X187428571Y-123187557D01*
X188000000Y-122568509D02*
X187666667Y-122568509D01*
X187666667Y-123092319D02*
X187666667Y-122092319D01*
X187666667Y-122092319D02*
X188142857Y-122092319D01*
X188476191Y-122806604D02*
X188952381Y-122806604D01*
X188380953Y-123092319D02*
X188714286Y-122092319D01*
X188714286Y-122092319D02*
X189047619Y-123092319D01*
X189380953Y-123092319D02*
X189380953Y-122092319D01*
X189380953Y-122092319D02*
X189952381Y-123092319D01*
X189952381Y-123092319D02*
X189952381Y-122092319D01*
X175952381Y-74217319D02*
X175952381Y-73217319D01*
X175952381Y-73217319D02*
X176190476Y-73217319D01*
X176190476Y-73217319D02*
X176333333Y-73264938D01*
X176333333Y-73264938D02*
X176428571Y-73360176D01*
X176428571Y-73360176D02*
X176476190Y-73455414D01*
X176476190Y-73455414D02*
X176523809Y-73645890D01*
X176523809Y-73645890D02*
X176523809Y-73788747D01*
X176523809Y-73788747D02*
X176476190Y-73979223D01*
X176476190Y-73979223D02*
X176428571Y-74074461D01*
X176428571Y-74074461D02*
X176333333Y-74169700D01*
X176333333Y-74169700D02*
X176190476Y-74217319D01*
X176190476Y-74217319D02*
X175952381Y-74217319D01*
X176952381Y-74217319D02*
X176952381Y-73550652D01*
X176952381Y-73217319D02*
X176904762Y-73264938D01*
X176904762Y-73264938D02*
X176952381Y-73312557D01*
X176952381Y-73312557D02*
X177000000Y-73264938D01*
X177000000Y-73264938D02*
X176952381Y-73217319D01*
X176952381Y-73217319D02*
X176952381Y-73312557D01*
X177857142Y-73550652D02*
X177857142Y-74360176D01*
X177857142Y-74360176D02*
X177809523Y-74455414D01*
X177809523Y-74455414D02*
X177761904Y-74503033D01*
X177761904Y-74503033D02*
X177666666Y-74550652D01*
X177666666Y-74550652D02*
X177523809Y-74550652D01*
X177523809Y-74550652D02*
X177428571Y-74503033D01*
X177857142Y-74169700D02*
X177761904Y-74217319D01*
X177761904Y-74217319D02*
X177571428Y-74217319D01*
X177571428Y-74217319D02*
X177476190Y-74169700D01*
X177476190Y-74169700D02*
X177428571Y-74122080D01*
X177428571Y-74122080D02*
X177380952Y-74026842D01*
X177380952Y-74026842D02*
X177380952Y-73741128D01*
X177380952Y-73741128D02*
X177428571Y-73645890D01*
X177428571Y-73645890D02*
X177476190Y-73598271D01*
X177476190Y-73598271D02*
X177571428Y-73550652D01*
X177571428Y-73550652D02*
X177761904Y-73550652D01*
X177761904Y-73550652D02*
X177857142Y-73598271D01*
X178333333Y-74217319D02*
X178333333Y-73550652D01*
X178333333Y-73217319D02*
X178285714Y-73264938D01*
X178285714Y-73264938D02*
X178333333Y-73312557D01*
X178333333Y-73312557D02*
X178380952Y-73264938D01*
X178380952Y-73264938D02*
X178333333Y-73217319D01*
X178333333Y-73217319D02*
X178333333Y-73312557D01*
X178666666Y-73550652D02*
X179047618Y-73550652D01*
X178809523Y-73217319D02*
X178809523Y-74074461D01*
X178809523Y-74074461D02*
X178857142Y-74169700D01*
X178857142Y-74169700D02*
X178952380Y-74217319D01*
X178952380Y-74217319D02*
X179047618Y-74217319D01*
X179809523Y-74217319D02*
X179809523Y-73693509D01*
X179809523Y-73693509D02*
X179761904Y-73598271D01*
X179761904Y-73598271D02*
X179666666Y-73550652D01*
X179666666Y-73550652D02*
X179476190Y-73550652D01*
X179476190Y-73550652D02*
X179380952Y-73598271D01*
X179809523Y-74169700D02*
X179714285Y-74217319D01*
X179714285Y-74217319D02*
X179476190Y-74217319D01*
X179476190Y-74217319D02*
X179380952Y-74169700D01*
X179380952Y-74169700D02*
X179333333Y-74074461D01*
X179333333Y-74074461D02*
X179333333Y-73979223D01*
X179333333Y-73979223D02*
X179380952Y-73883985D01*
X179380952Y-73883985D02*
X179476190Y-73836366D01*
X179476190Y-73836366D02*
X179714285Y-73836366D01*
X179714285Y-73836366D02*
X179809523Y-73788747D01*
X180428571Y-74217319D02*
X180333333Y-74169700D01*
X180333333Y-74169700D02*
X180285714Y-74074461D01*
X180285714Y-74074461D02*
X180285714Y-73217319D01*
X180571429Y-74312557D02*
X181333333Y-74312557D01*
X182000000Y-73550652D02*
X182000000Y-74217319D01*
X181761905Y-73169700D02*
X181523810Y-73883985D01*
X181523810Y-73883985D02*
X182142857Y-73883985D01*
X158361905Y-99704819D02*
X158361905Y-98704819D01*
X158933333Y-99704819D02*
X158504762Y-99133390D01*
X158933333Y-98704819D02*
X158361905Y-99276247D01*
X159790476Y-99038152D02*
X159790476Y-99704819D01*
X159552381Y-98657200D02*
X159314286Y-99371485D01*
X159314286Y-99371485D02*
X159933333Y-99371485D01*
X156667142Y-70954819D02*
X156095714Y-70954819D01*
X156381428Y-70954819D02*
X156381428Y-69954819D01*
X156381428Y-69954819D02*
X156286190Y-70097676D01*
X156286190Y-70097676D02*
X156190952Y-70192914D01*
X156190952Y-70192914D02*
X156095714Y-70240533D01*
X157095714Y-70954819D02*
X157095714Y-69954819D01*
X157095714Y-69954819D02*
X157667142Y-70954819D01*
X157667142Y-70954819D02*
X157667142Y-69954819D01*
X158571904Y-70288152D02*
X158571904Y-70954819D01*
X158333809Y-69907200D02*
X158095714Y-70621485D01*
X158095714Y-70621485D02*
X158714761Y-70621485D01*
X159286190Y-69954819D02*
X159381428Y-69954819D01*
X159381428Y-69954819D02*
X159476666Y-70002438D01*
X159476666Y-70002438D02*
X159524285Y-70050057D01*
X159524285Y-70050057D02*
X159571904Y-70145295D01*
X159571904Y-70145295D02*
X159619523Y-70335771D01*
X159619523Y-70335771D02*
X159619523Y-70573866D01*
X159619523Y-70573866D02*
X159571904Y-70764342D01*
X159571904Y-70764342D02*
X159524285Y-70859580D01*
X159524285Y-70859580D02*
X159476666Y-70907200D01*
X159476666Y-70907200D02*
X159381428Y-70954819D01*
X159381428Y-70954819D02*
X159286190Y-70954819D01*
X159286190Y-70954819D02*
X159190952Y-70907200D01*
X159190952Y-70907200D02*
X159143333Y-70859580D01*
X159143333Y-70859580D02*
X159095714Y-70764342D01*
X159095714Y-70764342D02*
X159048095Y-70573866D01*
X159048095Y-70573866D02*
X159048095Y-70335771D01*
X159048095Y-70335771D02*
X159095714Y-70145295D01*
X159095714Y-70145295D02*
X159143333Y-70050057D01*
X159143333Y-70050057D02*
X159190952Y-70002438D01*
X159190952Y-70002438D02*
X159286190Y-69954819D01*
X160238571Y-69954819D02*
X160333809Y-69954819D01*
X160333809Y-69954819D02*
X160429047Y-70002438D01*
X160429047Y-70002438D02*
X160476666Y-70050057D01*
X160476666Y-70050057D02*
X160524285Y-70145295D01*
X160524285Y-70145295D02*
X160571904Y-70335771D01*
X160571904Y-70335771D02*
X160571904Y-70573866D01*
X160571904Y-70573866D02*
X160524285Y-70764342D01*
X160524285Y-70764342D02*
X160476666Y-70859580D01*
X160476666Y-70859580D02*
X160429047Y-70907200D01*
X160429047Y-70907200D02*
X160333809Y-70954819D01*
X160333809Y-70954819D02*
X160238571Y-70954819D01*
X160238571Y-70954819D02*
X160143333Y-70907200D01*
X160143333Y-70907200D02*
X160095714Y-70859580D01*
X160095714Y-70859580D02*
X160048095Y-70764342D01*
X160048095Y-70764342D02*
X160000476Y-70573866D01*
X160000476Y-70573866D02*
X160000476Y-70335771D01*
X160000476Y-70335771D02*
X160048095Y-70145295D01*
X160048095Y-70145295D02*
X160095714Y-70050057D01*
X160095714Y-70050057D02*
X160143333Y-70002438D01*
X160143333Y-70002438D02*
X160238571Y-69954819D01*
X160905238Y-69954819D02*
X161571904Y-69954819D01*
X161571904Y-69954819D02*
X161143333Y-70954819D01*
X179595714Y-93454819D02*
X179024286Y-93454819D01*
X179310000Y-93454819D02*
X179310000Y-92454819D01*
X179310000Y-92454819D02*
X179214762Y-92597676D01*
X179214762Y-92597676D02*
X179119524Y-92692914D01*
X179119524Y-92692914D02*
X179024286Y-92740533D01*
X180024286Y-93454819D02*
X180024286Y-92454819D01*
X180595714Y-93454819D02*
X180167143Y-92883390D01*
X180595714Y-92454819D02*
X180024286Y-93026247D01*
X128511905Y-82704819D02*
X128511905Y-81704819D01*
X129083333Y-82704819D02*
X128654762Y-82133390D01*
X129083333Y-81704819D02*
X128511905Y-82276247D01*
X130035714Y-82704819D02*
X129464286Y-82704819D01*
X129750000Y-82704819D02*
X129750000Y-81704819D01*
X129750000Y-81704819D02*
X129654762Y-81847676D01*
X129654762Y-81847676D02*
X129559524Y-81942914D01*
X129559524Y-81942914D02*
X129464286Y-81990533D01*
X126761905Y-77050057D02*
X126809524Y-77002438D01*
X126809524Y-77002438D02*
X126904762Y-76954819D01*
X126904762Y-76954819D02*
X127142857Y-76954819D01*
X127142857Y-76954819D02*
X127238095Y-77002438D01*
X127238095Y-77002438D02*
X127285714Y-77050057D01*
X127285714Y-77050057D02*
X127333333Y-77145295D01*
X127333333Y-77145295D02*
X127333333Y-77240533D01*
X127333333Y-77240533D02*
X127285714Y-77383390D01*
X127285714Y-77383390D02*
X126714286Y-77954819D01*
X126714286Y-77954819D02*
X127333333Y-77954819D01*
X127714286Y-77050057D02*
X127761905Y-77002438D01*
X127761905Y-77002438D02*
X127857143Y-76954819D01*
X127857143Y-76954819D02*
X128095238Y-76954819D01*
X128095238Y-76954819D02*
X128190476Y-77002438D01*
X128190476Y-77002438D02*
X128238095Y-77050057D01*
X128238095Y-77050057D02*
X128285714Y-77145295D01*
X128285714Y-77145295D02*
X128285714Y-77240533D01*
X128285714Y-77240533D02*
X128238095Y-77383390D01*
X128238095Y-77383390D02*
X127666667Y-77954819D01*
X127666667Y-77954819D02*
X128285714Y-77954819D01*
X128904762Y-76954819D02*
X129000000Y-76954819D01*
X129000000Y-76954819D02*
X129095238Y-77002438D01*
X129095238Y-77002438D02*
X129142857Y-77050057D01*
X129142857Y-77050057D02*
X129190476Y-77145295D01*
X129190476Y-77145295D02*
X129238095Y-77335771D01*
X129238095Y-77335771D02*
X129238095Y-77573866D01*
X129238095Y-77573866D02*
X129190476Y-77764342D01*
X129190476Y-77764342D02*
X129142857Y-77859580D01*
X129142857Y-77859580D02*
X129095238Y-77907200D01*
X129095238Y-77907200D02*
X129000000Y-77954819D01*
X129000000Y-77954819D02*
X128904762Y-77954819D01*
X128904762Y-77954819D02*
X128809524Y-77907200D01*
X128809524Y-77907200D02*
X128761905Y-77859580D01*
X128761905Y-77859580D02*
X128714286Y-77764342D01*
X128714286Y-77764342D02*
X128666667Y-77573866D01*
X128666667Y-77573866D02*
X128666667Y-77335771D01*
X128666667Y-77335771D02*
X128714286Y-77145295D01*
X128714286Y-77145295D02*
X128761905Y-77050057D01*
X128761905Y-77050057D02*
X128809524Y-77002438D01*
X128809524Y-77002438D02*
X128904762Y-76954819D01*
X183352381Y-74217319D02*
X183352381Y-73217319D01*
X183352381Y-73217319D02*
X183590476Y-73217319D01*
X183590476Y-73217319D02*
X183733333Y-73264938D01*
X183733333Y-73264938D02*
X183828571Y-73360176D01*
X183828571Y-73360176D02*
X183876190Y-73455414D01*
X183876190Y-73455414D02*
X183923809Y-73645890D01*
X183923809Y-73645890D02*
X183923809Y-73788747D01*
X183923809Y-73788747D02*
X183876190Y-73979223D01*
X183876190Y-73979223D02*
X183828571Y-74074461D01*
X183828571Y-74074461D02*
X183733333Y-74169700D01*
X183733333Y-74169700D02*
X183590476Y-74217319D01*
X183590476Y-74217319D02*
X183352381Y-74217319D01*
X184352381Y-74217319D02*
X184352381Y-73550652D01*
X184352381Y-73217319D02*
X184304762Y-73264938D01*
X184304762Y-73264938D02*
X184352381Y-73312557D01*
X184352381Y-73312557D02*
X184400000Y-73264938D01*
X184400000Y-73264938D02*
X184352381Y-73217319D01*
X184352381Y-73217319D02*
X184352381Y-73312557D01*
X185257142Y-73550652D02*
X185257142Y-74360176D01*
X185257142Y-74360176D02*
X185209523Y-74455414D01*
X185209523Y-74455414D02*
X185161904Y-74503033D01*
X185161904Y-74503033D02*
X185066666Y-74550652D01*
X185066666Y-74550652D02*
X184923809Y-74550652D01*
X184923809Y-74550652D02*
X184828571Y-74503033D01*
X185257142Y-74169700D02*
X185161904Y-74217319D01*
X185161904Y-74217319D02*
X184971428Y-74217319D01*
X184971428Y-74217319D02*
X184876190Y-74169700D01*
X184876190Y-74169700D02*
X184828571Y-74122080D01*
X184828571Y-74122080D02*
X184780952Y-74026842D01*
X184780952Y-74026842D02*
X184780952Y-73741128D01*
X184780952Y-73741128D02*
X184828571Y-73645890D01*
X184828571Y-73645890D02*
X184876190Y-73598271D01*
X184876190Y-73598271D02*
X184971428Y-73550652D01*
X184971428Y-73550652D02*
X185161904Y-73550652D01*
X185161904Y-73550652D02*
X185257142Y-73598271D01*
X185733333Y-74217319D02*
X185733333Y-73550652D01*
X185733333Y-73217319D02*
X185685714Y-73264938D01*
X185685714Y-73264938D02*
X185733333Y-73312557D01*
X185733333Y-73312557D02*
X185780952Y-73264938D01*
X185780952Y-73264938D02*
X185733333Y-73217319D01*
X185733333Y-73217319D02*
X185733333Y-73312557D01*
X186066666Y-73550652D02*
X186447618Y-73550652D01*
X186209523Y-73217319D02*
X186209523Y-74074461D01*
X186209523Y-74074461D02*
X186257142Y-74169700D01*
X186257142Y-74169700D02*
X186352380Y-74217319D01*
X186352380Y-74217319D02*
X186447618Y-74217319D01*
X187209523Y-74217319D02*
X187209523Y-73693509D01*
X187209523Y-73693509D02*
X187161904Y-73598271D01*
X187161904Y-73598271D02*
X187066666Y-73550652D01*
X187066666Y-73550652D02*
X186876190Y-73550652D01*
X186876190Y-73550652D02*
X186780952Y-73598271D01*
X187209523Y-74169700D02*
X187114285Y-74217319D01*
X187114285Y-74217319D02*
X186876190Y-74217319D01*
X186876190Y-74217319D02*
X186780952Y-74169700D01*
X186780952Y-74169700D02*
X186733333Y-74074461D01*
X186733333Y-74074461D02*
X186733333Y-73979223D01*
X186733333Y-73979223D02*
X186780952Y-73883985D01*
X186780952Y-73883985D02*
X186876190Y-73836366D01*
X186876190Y-73836366D02*
X187114285Y-73836366D01*
X187114285Y-73836366D02*
X187209523Y-73788747D01*
X187828571Y-74217319D02*
X187733333Y-74169700D01*
X187733333Y-74169700D02*
X187685714Y-74074461D01*
X187685714Y-74074461D02*
X187685714Y-73217319D01*
X187971429Y-74312557D02*
X188733333Y-74312557D01*
X188876191Y-73217319D02*
X189495238Y-73217319D01*
X189495238Y-73217319D02*
X189161905Y-73598271D01*
X189161905Y-73598271D02*
X189304762Y-73598271D01*
X189304762Y-73598271D02*
X189400000Y-73645890D01*
X189400000Y-73645890D02*
X189447619Y-73693509D01*
X189447619Y-73693509D02*
X189495238Y-73788747D01*
X189495238Y-73788747D02*
X189495238Y-74026842D01*
X189495238Y-74026842D02*
X189447619Y-74122080D01*
X189447619Y-74122080D02*
X189400000Y-74169700D01*
X189400000Y-74169700D02*
X189304762Y-74217319D01*
X189304762Y-74217319D02*
X189019048Y-74217319D01*
X189019048Y-74217319D02*
X188923810Y-74169700D01*
X188923810Y-74169700D02*
X188876191Y-74122080D01*
X108584819Y-90714285D02*
X108584819Y-91285713D01*
X108584819Y-90999999D02*
X107584819Y-90999999D01*
X107584819Y-90999999D02*
X107727676Y-91095237D01*
X107727676Y-91095237D02*
X107822914Y-91190475D01*
X107822914Y-91190475D02*
X107870533Y-91285713D01*
X108584819Y-90285713D02*
X107584819Y-90285713D01*
X108584819Y-89714285D02*
X108013390Y-90142856D01*
X107584819Y-89714285D02*
X108156247Y-90285713D01*
X143994819Y-79412857D02*
X143994819Y-79889047D01*
X143994819Y-79889047D02*
X142994819Y-79889047D01*
X143471009Y-79079523D02*
X143471009Y-78746190D01*
X143994819Y-78603333D02*
X143994819Y-79079523D01*
X143994819Y-79079523D02*
X142994819Y-79079523D01*
X142994819Y-79079523D02*
X142994819Y-78603333D01*
X143994819Y-78174761D02*
X142994819Y-78174761D01*
X142994819Y-78174761D02*
X142994819Y-77936666D01*
X142994819Y-77936666D02*
X143042438Y-77793809D01*
X143042438Y-77793809D02*
X143137676Y-77698571D01*
X143137676Y-77698571D02*
X143232914Y-77650952D01*
X143232914Y-77650952D02*
X143423390Y-77603333D01*
X143423390Y-77603333D02*
X143566247Y-77603333D01*
X143566247Y-77603333D02*
X143756723Y-77650952D01*
X143756723Y-77650952D02*
X143851961Y-77698571D01*
X143851961Y-77698571D02*
X143947200Y-77793809D01*
X143947200Y-77793809D02*
X143994819Y-77936666D01*
X143994819Y-77936666D02*
X143994819Y-78174761D01*
X144090057Y-77412857D02*
X144090057Y-76650952D01*
X143947200Y-76460475D02*
X143994819Y-76317618D01*
X143994819Y-76317618D02*
X143994819Y-76079523D01*
X143994819Y-76079523D02*
X143947200Y-75984285D01*
X143947200Y-75984285D02*
X143899580Y-75936666D01*
X143899580Y-75936666D02*
X143804342Y-75889047D01*
X143804342Y-75889047D02*
X143709104Y-75889047D01*
X143709104Y-75889047D02*
X143613866Y-75936666D01*
X143613866Y-75936666D02*
X143566247Y-75984285D01*
X143566247Y-75984285D02*
X143518628Y-76079523D01*
X143518628Y-76079523D02*
X143471009Y-76269999D01*
X143471009Y-76269999D02*
X143423390Y-76365237D01*
X143423390Y-76365237D02*
X143375771Y-76412856D01*
X143375771Y-76412856D02*
X143280533Y-76460475D01*
X143280533Y-76460475D02*
X143185295Y-76460475D01*
X143185295Y-76460475D02*
X143090057Y-76412856D01*
X143090057Y-76412856D02*
X143042438Y-76365237D01*
X143042438Y-76365237D02*
X142994819Y-76269999D01*
X142994819Y-76269999D02*
X142994819Y-76031904D01*
X142994819Y-76031904D02*
X143042438Y-75889047D01*
X143994819Y-75460475D02*
X143328152Y-75460475D01*
X143423390Y-75460475D02*
X143375771Y-75412856D01*
X143375771Y-75412856D02*
X143328152Y-75317618D01*
X143328152Y-75317618D02*
X143328152Y-75174761D01*
X143328152Y-75174761D02*
X143375771Y-75079523D01*
X143375771Y-75079523D02*
X143471009Y-75031904D01*
X143471009Y-75031904D02*
X143994819Y-75031904D01*
X143471009Y-75031904D02*
X143375771Y-74984285D01*
X143375771Y-74984285D02*
X143328152Y-74889047D01*
X143328152Y-74889047D02*
X143328152Y-74746190D01*
X143328152Y-74746190D02*
X143375771Y-74650951D01*
X143375771Y-74650951D02*
X143471009Y-74603332D01*
X143471009Y-74603332D02*
X143994819Y-74603332D01*
X143994819Y-73698571D02*
X143471009Y-73698571D01*
X143471009Y-73698571D02*
X143375771Y-73746190D01*
X143375771Y-73746190D02*
X143328152Y-73841428D01*
X143328152Y-73841428D02*
X143328152Y-74031904D01*
X143328152Y-74031904D02*
X143375771Y-74127142D01*
X143947200Y-73698571D02*
X143994819Y-73793809D01*
X143994819Y-73793809D02*
X143994819Y-74031904D01*
X143994819Y-74031904D02*
X143947200Y-74127142D01*
X143947200Y-74127142D02*
X143851961Y-74174761D01*
X143851961Y-74174761D02*
X143756723Y-74174761D01*
X143756723Y-74174761D02*
X143661485Y-74127142D01*
X143661485Y-74127142D02*
X143613866Y-74031904D01*
X143613866Y-74031904D02*
X143613866Y-73793809D01*
X143613866Y-73793809D02*
X143566247Y-73698571D01*
X143994819Y-73079523D02*
X143947200Y-73174761D01*
X143947200Y-73174761D02*
X143851961Y-73222380D01*
X143851961Y-73222380D02*
X142994819Y-73222380D01*
X143994819Y-72555713D02*
X143947200Y-72650951D01*
X143947200Y-72650951D02*
X143851961Y-72698570D01*
X143851961Y-72698570D02*
X142994819Y-72698570D01*
X157071905Y-116050057D02*
X157119524Y-116002438D01*
X157119524Y-116002438D02*
X157214762Y-115954819D01*
X157214762Y-115954819D02*
X157452857Y-115954819D01*
X157452857Y-115954819D02*
X157548095Y-116002438D01*
X157548095Y-116002438D02*
X157595714Y-116050057D01*
X157595714Y-116050057D02*
X157643333Y-116145295D01*
X157643333Y-116145295D02*
X157643333Y-116240533D01*
X157643333Y-116240533D02*
X157595714Y-116383390D01*
X157595714Y-116383390D02*
X157024286Y-116954819D01*
X157024286Y-116954819D02*
X157643333Y-116954819D01*
X158024286Y-116050057D02*
X158071905Y-116002438D01*
X158071905Y-116002438D02*
X158167143Y-115954819D01*
X158167143Y-115954819D02*
X158405238Y-115954819D01*
X158405238Y-115954819D02*
X158500476Y-116002438D01*
X158500476Y-116002438D02*
X158548095Y-116050057D01*
X158548095Y-116050057D02*
X158595714Y-116145295D01*
X158595714Y-116145295D02*
X158595714Y-116240533D01*
X158595714Y-116240533D02*
X158548095Y-116383390D01*
X158548095Y-116383390D02*
X157976667Y-116954819D01*
X157976667Y-116954819D02*
X158595714Y-116954819D01*
X159214762Y-115954819D02*
X159310000Y-115954819D01*
X159310000Y-115954819D02*
X159405238Y-116002438D01*
X159405238Y-116002438D02*
X159452857Y-116050057D01*
X159452857Y-116050057D02*
X159500476Y-116145295D01*
X159500476Y-116145295D02*
X159548095Y-116335771D01*
X159548095Y-116335771D02*
X159548095Y-116573866D01*
X159548095Y-116573866D02*
X159500476Y-116764342D01*
X159500476Y-116764342D02*
X159452857Y-116859580D01*
X159452857Y-116859580D02*
X159405238Y-116907200D01*
X159405238Y-116907200D02*
X159310000Y-116954819D01*
X159310000Y-116954819D02*
X159214762Y-116954819D01*
X159214762Y-116954819D02*
X159119524Y-116907200D01*
X159119524Y-116907200D02*
X159071905Y-116859580D01*
X159071905Y-116859580D02*
X159024286Y-116764342D01*
X159024286Y-116764342D02*
X158976667Y-116573866D01*
X158976667Y-116573866D02*
X158976667Y-116335771D01*
X158976667Y-116335771D02*
X159024286Y-116145295D01*
X159024286Y-116145295D02*
X159071905Y-116050057D01*
X159071905Y-116050057D02*
X159119524Y-116002438D01*
X159119524Y-116002438D02*
X159214762Y-115954819D01*
X114285714Y-73400057D02*
X114333333Y-73352438D01*
X114333333Y-73352438D02*
X114428571Y-73304819D01*
X114428571Y-73304819D02*
X114666666Y-73304819D01*
X114666666Y-73304819D02*
X114761904Y-73352438D01*
X114761904Y-73352438D02*
X114809523Y-73400057D01*
X114809523Y-73400057D02*
X114857142Y-73495295D01*
X114857142Y-73495295D02*
X114857142Y-73590533D01*
X114857142Y-73590533D02*
X114809523Y-73733390D01*
X114809523Y-73733390D02*
X114238095Y-74304819D01*
X114238095Y-74304819D02*
X114857142Y-74304819D01*
X115285714Y-74304819D02*
X115285714Y-73304819D01*
X115285714Y-73304819D02*
X115857142Y-74304819D01*
X115857142Y-74304819D02*
X115857142Y-73304819D01*
X116238095Y-73304819D02*
X116857142Y-73304819D01*
X116857142Y-73304819D02*
X116523809Y-73685771D01*
X116523809Y-73685771D02*
X116666666Y-73685771D01*
X116666666Y-73685771D02*
X116761904Y-73733390D01*
X116761904Y-73733390D02*
X116809523Y-73781009D01*
X116809523Y-73781009D02*
X116857142Y-73876247D01*
X116857142Y-73876247D02*
X116857142Y-74114342D01*
X116857142Y-74114342D02*
X116809523Y-74209580D01*
X116809523Y-74209580D02*
X116761904Y-74257200D01*
X116761904Y-74257200D02*
X116666666Y-74304819D01*
X116666666Y-74304819D02*
X116380952Y-74304819D01*
X116380952Y-74304819D02*
X116285714Y-74257200D01*
X116285714Y-74257200D02*
X116238095Y-74209580D01*
X117333333Y-74304819D02*
X117523809Y-74304819D01*
X117523809Y-74304819D02*
X117619047Y-74257200D01*
X117619047Y-74257200D02*
X117666666Y-74209580D01*
X117666666Y-74209580D02*
X117761904Y-74066723D01*
X117761904Y-74066723D02*
X117809523Y-73876247D01*
X117809523Y-73876247D02*
X117809523Y-73495295D01*
X117809523Y-73495295D02*
X117761904Y-73400057D01*
X117761904Y-73400057D02*
X117714285Y-73352438D01*
X117714285Y-73352438D02*
X117619047Y-73304819D01*
X117619047Y-73304819D02*
X117428571Y-73304819D01*
X117428571Y-73304819D02*
X117333333Y-73352438D01*
X117333333Y-73352438D02*
X117285714Y-73400057D01*
X117285714Y-73400057D02*
X117238095Y-73495295D01*
X117238095Y-73495295D02*
X117238095Y-73733390D01*
X117238095Y-73733390D02*
X117285714Y-73828628D01*
X117285714Y-73828628D02*
X117333333Y-73876247D01*
X117333333Y-73876247D02*
X117428571Y-73923866D01*
X117428571Y-73923866D02*
X117619047Y-73923866D01*
X117619047Y-73923866D02*
X117714285Y-73876247D01*
X117714285Y-73876247D02*
X117761904Y-73828628D01*
X117761904Y-73828628D02*
X117809523Y-73733390D01*
X118428571Y-73304819D02*
X118523809Y-73304819D01*
X118523809Y-73304819D02*
X118619047Y-73352438D01*
X118619047Y-73352438D02*
X118666666Y-73400057D01*
X118666666Y-73400057D02*
X118714285Y-73495295D01*
X118714285Y-73495295D02*
X118761904Y-73685771D01*
X118761904Y-73685771D02*
X118761904Y-73923866D01*
X118761904Y-73923866D02*
X118714285Y-74114342D01*
X118714285Y-74114342D02*
X118666666Y-74209580D01*
X118666666Y-74209580D02*
X118619047Y-74257200D01*
X118619047Y-74257200D02*
X118523809Y-74304819D01*
X118523809Y-74304819D02*
X118428571Y-74304819D01*
X118428571Y-74304819D02*
X118333333Y-74257200D01*
X118333333Y-74257200D02*
X118285714Y-74209580D01*
X118285714Y-74209580D02*
X118238095Y-74114342D01*
X118238095Y-74114342D02*
X118190476Y-73923866D01*
X118190476Y-73923866D02*
X118190476Y-73685771D01*
X118190476Y-73685771D02*
X118238095Y-73495295D01*
X118238095Y-73495295D02*
X118285714Y-73400057D01*
X118285714Y-73400057D02*
X118333333Y-73352438D01*
X118333333Y-73352438D02*
X118428571Y-73304819D01*
X119619047Y-73638152D02*
X119619047Y-74304819D01*
X119380952Y-73257200D02*
X119142857Y-73971485D01*
X119142857Y-73971485D02*
X119761904Y-73971485D01*
X180095714Y-98954819D02*
X179524286Y-98954819D01*
X179810000Y-98954819D02*
X179810000Y-97954819D01*
X179810000Y-97954819D02*
X179714762Y-98097676D01*
X179714762Y-98097676D02*
X179619524Y-98192914D01*
X179619524Y-98192914D02*
X179524286Y-98240533D01*
X180524286Y-98954819D02*
X180524286Y-97954819D01*
X181095714Y-98954819D02*
X180667143Y-98383390D01*
X181095714Y-97954819D02*
X180524286Y-98526247D01*
X137954819Y-123642857D02*
X137954819Y-124119047D01*
X137954819Y-124119047D02*
X136954819Y-124119047D01*
X137431009Y-123309523D02*
X137431009Y-122976190D01*
X137954819Y-122833333D02*
X137954819Y-123309523D01*
X137954819Y-123309523D02*
X136954819Y-123309523D01*
X136954819Y-123309523D02*
X136954819Y-122833333D01*
X137954819Y-122404761D02*
X136954819Y-122404761D01*
X136954819Y-122404761D02*
X136954819Y-122166666D01*
X136954819Y-122166666D02*
X137002438Y-122023809D01*
X137002438Y-122023809D02*
X137097676Y-121928571D01*
X137097676Y-121928571D02*
X137192914Y-121880952D01*
X137192914Y-121880952D02*
X137383390Y-121833333D01*
X137383390Y-121833333D02*
X137526247Y-121833333D01*
X137526247Y-121833333D02*
X137716723Y-121880952D01*
X137716723Y-121880952D02*
X137811961Y-121928571D01*
X137811961Y-121928571D02*
X137907200Y-122023809D01*
X137907200Y-122023809D02*
X137954819Y-122166666D01*
X137954819Y-122166666D02*
X137954819Y-122404761D01*
X138050057Y-121642857D02*
X138050057Y-120880952D01*
X137907200Y-120690475D02*
X137954819Y-120547618D01*
X137954819Y-120547618D02*
X137954819Y-120309523D01*
X137954819Y-120309523D02*
X137907200Y-120214285D01*
X137907200Y-120214285D02*
X137859580Y-120166666D01*
X137859580Y-120166666D02*
X137764342Y-120119047D01*
X137764342Y-120119047D02*
X137669104Y-120119047D01*
X137669104Y-120119047D02*
X137573866Y-120166666D01*
X137573866Y-120166666D02*
X137526247Y-120214285D01*
X137526247Y-120214285D02*
X137478628Y-120309523D01*
X137478628Y-120309523D02*
X137431009Y-120499999D01*
X137431009Y-120499999D02*
X137383390Y-120595237D01*
X137383390Y-120595237D02*
X137335771Y-120642856D01*
X137335771Y-120642856D02*
X137240533Y-120690475D01*
X137240533Y-120690475D02*
X137145295Y-120690475D01*
X137145295Y-120690475D02*
X137050057Y-120642856D01*
X137050057Y-120642856D02*
X137002438Y-120595237D01*
X137002438Y-120595237D02*
X136954819Y-120499999D01*
X136954819Y-120499999D02*
X136954819Y-120261904D01*
X136954819Y-120261904D02*
X137002438Y-120119047D01*
X137954819Y-119690475D02*
X137288152Y-119690475D01*
X137383390Y-119690475D02*
X137335771Y-119642856D01*
X137335771Y-119642856D02*
X137288152Y-119547618D01*
X137288152Y-119547618D02*
X137288152Y-119404761D01*
X137288152Y-119404761D02*
X137335771Y-119309523D01*
X137335771Y-119309523D02*
X137431009Y-119261904D01*
X137431009Y-119261904D02*
X137954819Y-119261904D01*
X137431009Y-119261904D02*
X137335771Y-119214285D01*
X137335771Y-119214285D02*
X137288152Y-119119047D01*
X137288152Y-119119047D02*
X137288152Y-118976190D01*
X137288152Y-118976190D02*
X137335771Y-118880951D01*
X137335771Y-118880951D02*
X137431009Y-118833332D01*
X137431009Y-118833332D02*
X137954819Y-118833332D01*
X137954819Y-117928571D02*
X137431009Y-117928571D01*
X137431009Y-117928571D02*
X137335771Y-117976190D01*
X137335771Y-117976190D02*
X137288152Y-118071428D01*
X137288152Y-118071428D02*
X137288152Y-118261904D01*
X137288152Y-118261904D02*
X137335771Y-118357142D01*
X137907200Y-117928571D02*
X137954819Y-118023809D01*
X137954819Y-118023809D02*
X137954819Y-118261904D01*
X137954819Y-118261904D02*
X137907200Y-118357142D01*
X137907200Y-118357142D02*
X137811961Y-118404761D01*
X137811961Y-118404761D02*
X137716723Y-118404761D01*
X137716723Y-118404761D02*
X137621485Y-118357142D01*
X137621485Y-118357142D02*
X137573866Y-118261904D01*
X137573866Y-118261904D02*
X137573866Y-118023809D01*
X137573866Y-118023809D02*
X137526247Y-117928571D01*
X137954819Y-117309523D02*
X137907200Y-117404761D01*
X137907200Y-117404761D02*
X137811961Y-117452380D01*
X137811961Y-117452380D02*
X136954819Y-117452380D01*
X137954819Y-116785713D02*
X137907200Y-116880951D01*
X137907200Y-116880951D02*
X137811961Y-116928570D01*
X137811961Y-116928570D02*
X136954819Y-116928570D01*
X156357142Y-123004819D02*
X155785714Y-123004819D01*
X156071428Y-123004819D02*
X156071428Y-122004819D01*
X156071428Y-122004819D02*
X155976190Y-122147676D01*
X155976190Y-122147676D02*
X155880952Y-122242914D01*
X155880952Y-122242914D02*
X155785714Y-122290533D01*
X156785714Y-123004819D02*
X156785714Y-122004819D01*
X156785714Y-122004819D02*
X157357142Y-123004819D01*
X157357142Y-123004819D02*
X157357142Y-122004819D01*
X158261904Y-122338152D02*
X158261904Y-123004819D01*
X158023809Y-121957200D02*
X157785714Y-122671485D01*
X157785714Y-122671485D02*
X158404761Y-122671485D01*
X158976190Y-122004819D02*
X159071428Y-122004819D01*
X159071428Y-122004819D02*
X159166666Y-122052438D01*
X159166666Y-122052438D02*
X159214285Y-122100057D01*
X159214285Y-122100057D02*
X159261904Y-122195295D01*
X159261904Y-122195295D02*
X159309523Y-122385771D01*
X159309523Y-122385771D02*
X159309523Y-122623866D01*
X159309523Y-122623866D02*
X159261904Y-122814342D01*
X159261904Y-122814342D02*
X159214285Y-122909580D01*
X159214285Y-122909580D02*
X159166666Y-122957200D01*
X159166666Y-122957200D02*
X159071428Y-123004819D01*
X159071428Y-123004819D02*
X158976190Y-123004819D01*
X158976190Y-123004819D02*
X158880952Y-122957200D01*
X158880952Y-122957200D02*
X158833333Y-122909580D01*
X158833333Y-122909580D02*
X158785714Y-122814342D01*
X158785714Y-122814342D02*
X158738095Y-122623866D01*
X158738095Y-122623866D02*
X158738095Y-122385771D01*
X158738095Y-122385771D02*
X158785714Y-122195295D01*
X158785714Y-122195295D02*
X158833333Y-122100057D01*
X158833333Y-122100057D02*
X158880952Y-122052438D01*
X158880952Y-122052438D02*
X158976190Y-122004819D01*
X159928571Y-122004819D02*
X160023809Y-122004819D01*
X160023809Y-122004819D02*
X160119047Y-122052438D01*
X160119047Y-122052438D02*
X160166666Y-122100057D01*
X160166666Y-122100057D02*
X160214285Y-122195295D01*
X160214285Y-122195295D02*
X160261904Y-122385771D01*
X160261904Y-122385771D02*
X160261904Y-122623866D01*
X160261904Y-122623866D02*
X160214285Y-122814342D01*
X160214285Y-122814342D02*
X160166666Y-122909580D01*
X160166666Y-122909580D02*
X160119047Y-122957200D01*
X160119047Y-122957200D02*
X160023809Y-123004819D01*
X160023809Y-123004819D02*
X159928571Y-123004819D01*
X159928571Y-123004819D02*
X159833333Y-122957200D01*
X159833333Y-122957200D02*
X159785714Y-122909580D01*
X159785714Y-122909580D02*
X159738095Y-122814342D01*
X159738095Y-122814342D02*
X159690476Y-122623866D01*
X159690476Y-122623866D02*
X159690476Y-122385771D01*
X159690476Y-122385771D02*
X159738095Y-122195295D01*
X159738095Y-122195295D02*
X159785714Y-122100057D01*
X159785714Y-122100057D02*
X159833333Y-122052438D01*
X159833333Y-122052438D02*
X159928571Y-122004819D01*
X160595238Y-122004819D02*
X161261904Y-122004819D01*
X161261904Y-122004819D02*
X160833333Y-123004819D01*
X190754819Y-115619523D02*
X189754819Y-115619523D01*
X189754819Y-115619523D02*
X190469104Y-115286190D01*
X190469104Y-115286190D02*
X189754819Y-114952857D01*
X189754819Y-114952857D02*
X190754819Y-114952857D01*
X189850057Y-114524285D02*
X189802438Y-114476666D01*
X189802438Y-114476666D02*
X189754819Y-114381428D01*
X189754819Y-114381428D02*
X189754819Y-114143333D01*
X189754819Y-114143333D02*
X189802438Y-114048095D01*
X189802438Y-114048095D02*
X189850057Y-114000476D01*
X189850057Y-114000476D02*
X189945295Y-113952857D01*
X189945295Y-113952857D02*
X190040533Y-113952857D01*
X190040533Y-113952857D02*
X190183390Y-114000476D01*
X190183390Y-114000476D02*
X190754819Y-114571904D01*
X190754819Y-114571904D02*
X190754819Y-113952857D01*
X204631009Y-115571904D02*
X204631009Y-115905237D01*
X205154819Y-115905237D02*
X204154819Y-115905237D01*
X204154819Y-115905237D02*
X204154819Y-115429047D01*
X205154819Y-114619523D02*
X204631009Y-114619523D01*
X204631009Y-114619523D02*
X204535771Y-114667142D01*
X204535771Y-114667142D02*
X204488152Y-114762380D01*
X204488152Y-114762380D02*
X204488152Y-114952856D01*
X204488152Y-114952856D02*
X204535771Y-115048094D01*
X205107200Y-114619523D02*
X205154819Y-114714761D01*
X205154819Y-114714761D02*
X205154819Y-114952856D01*
X205154819Y-114952856D02*
X205107200Y-115048094D01*
X205107200Y-115048094D02*
X205011961Y-115095713D01*
X205011961Y-115095713D02*
X204916723Y-115095713D01*
X204916723Y-115095713D02*
X204821485Y-115048094D01*
X204821485Y-115048094D02*
X204773866Y-114952856D01*
X204773866Y-114952856D02*
X204773866Y-114714761D01*
X204773866Y-114714761D02*
X204726247Y-114619523D01*
X204488152Y-114143332D02*
X205154819Y-114143332D01*
X204583390Y-114143332D02*
X204535771Y-114095713D01*
X204535771Y-114095713D02*
X204488152Y-114000475D01*
X204488152Y-114000475D02*
X204488152Y-113857618D01*
X204488152Y-113857618D02*
X204535771Y-113762380D01*
X204535771Y-113762380D02*
X204631009Y-113714761D01*
X204631009Y-113714761D02*
X205154819Y-113714761D01*
X125857142Y-122954819D02*
X125285714Y-122954819D01*
X125571428Y-122954819D02*
X125571428Y-121954819D01*
X125571428Y-121954819D02*
X125476190Y-122097676D01*
X125476190Y-122097676D02*
X125380952Y-122192914D01*
X125380952Y-122192914D02*
X125285714Y-122240533D01*
X126285714Y-122954819D02*
X126285714Y-121954819D01*
X126285714Y-121954819D02*
X126857142Y-122954819D01*
X126857142Y-122954819D02*
X126857142Y-121954819D01*
X127761904Y-122288152D02*
X127761904Y-122954819D01*
X127523809Y-121907200D02*
X127285714Y-122621485D01*
X127285714Y-122621485D02*
X127904761Y-122621485D01*
X128476190Y-121954819D02*
X128571428Y-121954819D01*
X128571428Y-121954819D02*
X128666666Y-122002438D01*
X128666666Y-122002438D02*
X128714285Y-122050057D01*
X128714285Y-122050057D02*
X128761904Y-122145295D01*
X128761904Y-122145295D02*
X128809523Y-122335771D01*
X128809523Y-122335771D02*
X128809523Y-122573866D01*
X128809523Y-122573866D02*
X128761904Y-122764342D01*
X128761904Y-122764342D02*
X128714285Y-122859580D01*
X128714285Y-122859580D02*
X128666666Y-122907200D01*
X128666666Y-122907200D02*
X128571428Y-122954819D01*
X128571428Y-122954819D02*
X128476190Y-122954819D01*
X128476190Y-122954819D02*
X128380952Y-122907200D01*
X128380952Y-122907200D02*
X128333333Y-122859580D01*
X128333333Y-122859580D02*
X128285714Y-122764342D01*
X128285714Y-122764342D02*
X128238095Y-122573866D01*
X128238095Y-122573866D02*
X128238095Y-122335771D01*
X128238095Y-122335771D02*
X128285714Y-122145295D01*
X128285714Y-122145295D02*
X128333333Y-122050057D01*
X128333333Y-122050057D02*
X128380952Y-122002438D01*
X128380952Y-122002438D02*
X128476190Y-121954819D01*
X129428571Y-121954819D02*
X129523809Y-121954819D01*
X129523809Y-121954819D02*
X129619047Y-122002438D01*
X129619047Y-122002438D02*
X129666666Y-122050057D01*
X129666666Y-122050057D02*
X129714285Y-122145295D01*
X129714285Y-122145295D02*
X129761904Y-122335771D01*
X129761904Y-122335771D02*
X129761904Y-122573866D01*
X129761904Y-122573866D02*
X129714285Y-122764342D01*
X129714285Y-122764342D02*
X129666666Y-122859580D01*
X129666666Y-122859580D02*
X129619047Y-122907200D01*
X129619047Y-122907200D02*
X129523809Y-122954819D01*
X129523809Y-122954819D02*
X129428571Y-122954819D01*
X129428571Y-122954819D02*
X129333333Y-122907200D01*
X129333333Y-122907200D02*
X129285714Y-122859580D01*
X129285714Y-122859580D02*
X129238095Y-122764342D01*
X129238095Y-122764342D02*
X129190476Y-122573866D01*
X129190476Y-122573866D02*
X129190476Y-122335771D01*
X129190476Y-122335771D02*
X129238095Y-122145295D01*
X129238095Y-122145295D02*
X129285714Y-122050057D01*
X129285714Y-122050057D02*
X129333333Y-122002438D01*
X129333333Y-122002438D02*
X129428571Y-121954819D01*
X130095238Y-121954819D02*
X130761904Y-121954819D01*
X130761904Y-121954819D02*
X130333333Y-122954819D01*
X108454819Y-107404285D02*
X108454819Y-107975713D01*
X108454819Y-107689999D02*
X107454819Y-107689999D01*
X107454819Y-107689999D02*
X107597676Y-107785237D01*
X107597676Y-107785237D02*
X107692914Y-107880475D01*
X107692914Y-107880475D02*
X107740533Y-107975713D01*
X108454819Y-106975713D02*
X107454819Y-106975713D01*
X108454819Y-106404285D02*
X107883390Y-106832856D01*
X107454819Y-106404285D02*
X108026247Y-106975713D01*
X143954819Y-123192857D02*
X143954819Y-123669047D01*
X143954819Y-123669047D02*
X142954819Y-123669047D01*
X143431009Y-122859523D02*
X143431009Y-122526190D01*
X143954819Y-122383333D02*
X143954819Y-122859523D01*
X143954819Y-122859523D02*
X142954819Y-122859523D01*
X142954819Y-122859523D02*
X142954819Y-122383333D01*
X143954819Y-121954761D02*
X142954819Y-121954761D01*
X142954819Y-121954761D02*
X142954819Y-121716666D01*
X142954819Y-121716666D02*
X143002438Y-121573809D01*
X143002438Y-121573809D02*
X143097676Y-121478571D01*
X143097676Y-121478571D02*
X143192914Y-121430952D01*
X143192914Y-121430952D02*
X143383390Y-121383333D01*
X143383390Y-121383333D02*
X143526247Y-121383333D01*
X143526247Y-121383333D02*
X143716723Y-121430952D01*
X143716723Y-121430952D02*
X143811961Y-121478571D01*
X143811961Y-121478571D02*
X143907200Y-121573809D01*
X143907200Y-121573809D02*
X143954819Y-121716666D01*
X143954819Y-121716666D02*
X143954819Y-121954761D01*
X144050057Y-121192857D02*
X144050057Y-120430952D01*
X143907200Y-120240475D02*
X143954819Y-120097618D01*
X143954819Y-120097618D02*
X143954819Y-119859523D01*
X143954819Y-119859523D02*
X143907200Y-119764285D01*
X143907200Y-119764285D02*
X143859580Y-119716666D01*
X143859580Y-119716666D02*
X143764342Y-119669047D01*
X143764342Y-119669047D02*
X143669104Y-119669047D01*
X143669104Y-119669047D02*
X143573866Y-119716666D01*
X143573866Y-119716666D02*
X143526247Y-119764285D01*
X143526247Y-119764285D02*
X143478628Y-119859523D01*
X143478628Y-119859523D02*
X143431009Y-120049999D01*
X143431009Y-120049999D02*
X143383390Y-120145237D01*
X143383390Y-120145237D02*
X143335771Y-120192856D01*
X143335771Y-120192856D02*
X143240533Y-120240475D01*
X143240533Y-120240475D02*
X143145295Y-120240475D01*
X143145295Y-120240475D02*
X143050057Y-120192856D01*
X143050057Y-120192856D02*
X143002438Y-120145237D01*
X143002438Y-120145237D02*
X142954819Y-120049999D01*
X142954819Y-120049999D02*
X142954819Y-119811904D01*
X142954819Y-119811904D02*
X143002438Y-119669047D01*
X143954819Y-119240475D02*
X143288152Y-119240475D01*
X143383390Y-119240475D02*
X143335771Y-119192856D01*
X143335771Y-119192856D02*
X143288152Y-119097618D01*
X143288152Y-119097618D02*
X143288152Y-118954761D01*
X143288152Y-118954761D02*
X143335771Y-118859523D01*
X143335771Y-118859523D02*
X143431009Y-118811904D01*
X143431009Y-118811904D02*
X143954819Y-118811904D01*
X143431009Y-118811904D02*
X143335771Y-118764285D01*
X143335771Y-118764285D02*
X143288152Y-118669047D01*
X143288152Y-118669047D02*
X143288152Y-118526190D01*
X143288152Y-118526190D02*
X143335771Y-118430951D01*
X143335771Y-118430951D02*
X143431009Y-118383332D01*
X143431009Y-118383332D02*
X143954819Y-118383332D01*
X143954819Y-117478571D02*
X143431009Y-117478571D01*
X143431009Y-117478571D02*
X143335771Y-117526190D01*
X143335771Y-117526190D02*
X143288152Y-117621428D01*
X143288152Y-117621428D02*
X143288152Y-117811904D01*
X143288152Y-117811904D02*
X143335771Y-117907142D01*
X143907200Y-117478571D02*
X143954819Y-117573809D01*
X143954819Y-117573809D02*
X143954819Y-117811904D01*
X143954819Y-117811904D02*
X143907200Y-117907142D01*
X143907200Y-117907142D02*
X143811961Y-117954761D01*
X143811961Y-117954761D02*
X143716723Y-117954761D01*
X143716723Y-117954761D02*
X143621485Y-117907142D01*
X143621485Y-117907142D02*
X143573866Y-117811904D01*
X143573866Y-117811904D02*
X143573866Y-117573809D01*
X143573866Y-117573809D02*
X143526247Y-117478571D01*
X143954819Y-116859523D02*
X143907200Y-116954761D01*
X143907200Y-116954761D02*
X143811961Y-117002380D01*
X143811961Y-117002380D02*
X142954819Y-117002380D01*
X143954819Y-116335713D02*
X143907200Y-116430951D01*
X143907200Y-116430951D02*
X143811961Y-116478570D01*
X143811961Y-116478570D02*
X142954819Y-116478570D01*
X158861905Y-82704819D02*
X158861905Y-81704819D01*
X159433333Y-82704819D02*
X159004762Y-82133390D01*
X159433333Y-81704819D02*
X158861905Y-82276247D01*
X159766667Y-81704819D02*
X160385714Y-81704819D01*
X160385714Y-81704819D02*
X160052381Y-82085771D01*
X160052381Y-82085771D02*
X160195238Y-82085771D01*
X160195238Y-82085771D02*
X160290476Y-82133390D01*
X160290476Y-82133390D02*
X160338095Y-82181009D01*
X160338095Y-82181009D02*
X160385714Y-82276247D01*
X160385714Y-82276247D02*
X160385714Y-82514342D01*
X160385714Y-82514342D02*
X160338095Y-82609580D01*
X160338095Y-82609580D02*
X160290476Y-82657200D01*
X160290476Y-82657200D02*
X160195238Y-82704819D01*
X160195238Y-82704819D02*
X159909524Y-82704819D01*
X159909524Y-82704819D02*
X159814286Y-82657200D01*
X159814286Y-82657200D02*
X159766667Y-82609580D01*
X114015714Y-117050057D02*
X114063333Y-117002438D01*
X114063333Y-117002438D02*
X114158571Y-116954819D01*
X114158571Y-116954819D02*
X114396666Y-116954819D01*
X114396666Y-116954819D02*
X114491904Y-117002438D01*
X114491904Y-117002438D02*
X114539523Y-117050057D01*
X114539523Y-117050057D02*
X114587142Y-117145295D01*
X114587142Y-117145295D02*
X114587142Y-117240533D01*
X114587142Y-117240533D02*
X114539523Y-117383390D01*
X114539523Y-117383390D02*
X113968095Y-117954819D01*
X113968095Y-117954819D02*
X114587142Y-117954819D01*
X115015714Y-117954819D02*
X115015714Y-116954819D01*
X115015714Y-116954819D02*
X115587142Y-117954819D01*
X115587142Y-117954819D02*
X115587142Y-116954819D01*
X115968095Y-116954819D02*
X116587142Y-116954819D01*
X116587142Y-116954819D02*
X116253809Y-117335771D01*
X116253809Y-117335771D02*
X116396666Y-117335771D01*
X116396666Y-117335771D02*
X116491904Y-117383390D01*
X116491904Y-117383390D02*
X116539523Y-117431009D01*
X116539523Y-117431009D02*
X116587142Y-117526247D01*
X116587142Y-117526247D02*
X116587142Y-117764342D01*
X116587142Y-117764342D02*
X116539523Y-117859580D01*
X116539523Y-117859580D02*
X116491904Y-117907200D01*
X116491904Y-117907200D02*
X116396666Y-117954819D01*
X116396666Y-117954819D02*
X116110952Y-117954819D01*
X116110952Y-117954819D02*
X116015714Y-117907200D01*
X116015714Y-117907200D02*
X115968095Y-117859580D01*
X117063333Y-117954819D02*
X117253809Y-117954819D01*
X117253809Y-117954819D02*
X117349047Y-117907200D01*
X117349047Y-117907200D02*
X117396666Y-117859580D01*
X117396666Y-117859580D02*
X117491904Y-117716723D01*
X117491904Y-117716723D02*
X117539523Y-117526247D01*
X117539523Y-117526247D02*
X117539523Y-117145295D01*
X117539523Y-117145295D02*
X117491904Y-117050057D01*
X117491904Y-117050057D02*
X117444285Y-117002438D01*
X117444285Y-117002438D02*
X117349047Y-116954819D01*
X117349047Y-116954819D02*
X117158571Y-116954819D01*
X117158571Y-116954819D02*
X117063333Y-117002438D01*
X117063333Y-117002438D02*
X117015714Y-117050057D01*
X117015714Y-117050057D02*
X116968095Y-117145295D01*
X116968095Y-117145295D02*
X116968095Y-117383390D01*
X116968095Y-117383390D02*
X117015714Y-117478628D01*
X117015714Y-117478628D02*
X117063333Y-117526247D01*
X117063333Y-117526247D02*
X117158571Y-117573866D01*
X117158571Y-117573866D02*
X117349047Y-117573866D01*
X117349047Y-117573866D02*
X117444285Y-117526247D01*
X117444285Y-117526247D02*
X117491904Y-117478628D01*
X117491904Y-117478628D02*
X117539523Y-117383390D01*
X118158571Y-116954819D02*
X118253809Y-116954819D01*
X118253809Y-116954819D02*
X118349047Y-117002438D01*
X118349047Y-117002438D02*
X118396666Y-117050057D01*
X118396666Y-117050057D02*
X118444285Y-117145295D01*
X118444285Y-117145295D02*
X118491904Y-117335771D01*
X118491904Y-117335771D02*
X118491904Y-117573866D01*
X118491904Y-117573866D02*
X118444285Y-117764342D01*
X118444285Y-117764342D02*
X118396666Y-117859580D01*
X118396666Y-117859580D02*
X118349047Y-117907200D01*
X118349047Y-117907200D02*
X118253809Y-117954819D01*
X118253809Y-117954819D02*
X118158571Y-117954819D01*
X118158571Y-117954819D02*
X118063333Y-117907200D01*
X118063333Y-117907200D02*
X118015714Y-117859580D01*
X118015714Y-117859580D02*
X117968095Y-117764342D01*
X117968095Y-117764342D02*
X117920476Y-117573866D01*
X117920476Y-117573866D02*
X117920476Y-117335771D01*
X117920476Y-117335771D02*
X117968095Y-117145295D01*
X117968095Y-117145295D02*
X118015714Y-117050057D01*
X118015714Y-117050057D02*
X118063333Y-117002438D01*
X118063333Y-117002438D02*
X118158571Y-116954819D01*
X119349047Y-117288152D02*
X119349047Y-117954819D01*
X119110952Y-116907200D02*
X118872857Y-117621485D01*
X118872857Y-117621485D02*
X119491904Y-117621485D01*
X167285714Y-74310057D02*
X167333333Y-74262438D01*
X167333333Y-74262438D02*
X167428571Y-74214819D01*
X167428571Y-74214819D02*
X167666666Y-74214819D01*
X167666666Y-74214819D02*
X167761904Y-74262438D01*
X167761904Y-74262438D02*
X167809523Y-74310057D01*
X167809523Y-74310057D02*
X167857142Y-74405295D01*
X167857142Y-74405295D02*
X167857142Y-74500533D01*
X167857142Y-74500533D02*
X167809523Y-74643390D01*
X167809523Y-74643390D02*
X167238095Y-75214819D01*
X167238095Y-75214819D02*
X167857142Y-75214819D01*
X168285714Y-75214819D02*
X168285714Y-74214819D01*
X168285714Y-74214819D02*
X168857142Y-75214819D01*
X168857142Y-75214819D02*
X168857142Y-74214819D01*
X169238095Y-74214819D02*
X169857142Y-74214819D01*
X169857142Y-74214819D02*
X169523809Y-74595771D01*
X169523809Y-74595771D02*
X169666666Y-74595771D01*
X169666666Y-74595771D02*
X169761904Y-74643390D01*
X169761904Y-74643390D02*
X169809523Y-74691009D01*
X169809523Y-74691009D02*
X169857142Y-74786247D01*
X169857142Y-74786247D02*
X169857142Y-75024342D01*
X169857142Y-75024342D02*
X169809523Y-75119580D01*
X169809523Y-75119580D02*
X169761904Y-75167200D01*
X169761904Y-75167200D02*
X169666666Y-75214819D01*
X169666666Y-75214819D02*
X169380952Y-75214819D01*
X169380952Y-75214819D02*
X169285714Y-75167200D01*
X169285714Y-75167200D02*
X169238095Y-75119580D01*
X170333333Y-75214819D02*
X170523809Y-75214819D01*
X170523809Y-75214819D02*
X170619047Y-75167200D01*
X170619047Y-75167200D02*
X170666666Y-75119580D01*
X170666666Y-75119580D02*
X170761904Y-74976723D01*
X170761904Y-74976723D02*
X170809523Y-74786247D01*
X170809523Y-74786247D02*
X170809523Y-74405295D01*
X170809523Y-74405295D02*
X170761904Y-74310057D01*
X170761904Y-74310057D02*
X170714285Y-74262438D01*
X170714285Y-74262438D02*
X170619047Y-74214819D01*
X170619047Y-74214819D02*
X170428571Y-74214819D01*
X170428571Y-74214819D02*
X170333333Y-74262438D01*
X170333333Y-74262438D02*
X170285714Y-74310057D01*
X170285714Y-74310057D02*
X170238095Y-74405295D01*
X170238095Y-74405295D02*
X170238095Y-74643390D01*
X170238095Y-74643390D02*
X170285714Y-74738628D01*
X170285714Y-74738628D02*
X170333333Y-74786247D01*
X170333333Y-74786247D02*
X170428571Y-74833866D01*
X170428571Y-74833866D02*
X170619047Y-74833866D01*
X170619047Y-74833866D02*
X170714285Y-74786247D01*
X170714285Y-74786247D02*
X170761904Y-74738628D01*
X170761904Y-74738628D02*
X170809523Y-74643390D01*
X171428571Y-74214819D02*
X171523809Y-74214819D01*
X171523809Y-74214819D02*
X171619047Y-74262438D01*
X171619047Y-74262438D02*
X171666666Y-74310057D01*
X171666666Y-74310057D02*
X171714285Y-74405295D01*
X171714285Y-74405295D02*
X171761904Y-74595771D01*
X171761904Y-74595771D02*
X171761904Y-74833866D01*
X171761904Y-74833866D02*
X171714285Y-75024342D01*
X171714285Y-75024342D02*
X171666666Y-75119580D01*
X171666666Y-75119580D02*
X171619047Y-75167200D01*
X171619047Y-75167200D02*
X171523809Y-75214819D01*
X171523809Y-75214819D02*
X171428571Y-75214819D01*
X171428571Y-75214819D02*
X171333333Y-75167200D01*
X171333333Y-75167200D02*
X171285714Y-75119580D01*
X171285714Y-75119580D02*
X171238095Y-75024342D01*
X171238095Y-75024342D02*
X171190476Y-74833866D01*
X171190476Y-74833866D02*
X171190476Y-74595771D01*
X171190476Y-74595771D02*
X171238095Y-74405295D01*
X171238095Y-74405295D02*
X171285714Y-74310057D01*
X171285714Y-74310057D02*
X171333333Y-74262438D01*
X171333333Y-74262438D02*
X171428571Y-74214819D01*
X172619047Y-74548152D02*
X172619047Y-75214819D01*
X172380952Y-74167200D02*
X172142857Y-74881485D01*
X172142857Y-74881485D02*
X172761904Y-74881485D01*
X125857142Y-70984819D02*
X125285714Y-70984819D01*
X125571428Y-70984819D02*
X125571428Y-69984819D01*
X125571428Y-69984819D02*
X125476190Y-70127676D01*
X125476190Y-70127676D02*
X125380952Y-70222914D01*
X125380952Y-70222914D02*
X125285714Y-70270533D01*
X126285714Y-70984819D02*
X126285714Y-69984819D01*
X126285714Y-69984819D02*
X126857142Y-70984819D01*
X126857142Y-70984819D02*
X126857142Y-69984819D01*
X127761904Y-70318152D02*
X127761904Y-70984819D01*
X127523809Y-69937200D02*
X127285714Y-70651485D01*
X127285714Y-70651485D02*
X127904761Y-70651485D01*
X128476190Y-69984819D02*
X128571428Y-69984819D01*
X128571428Y-69984819D02*
X128666666Y-70032438D01*
X128666666Y-70032438D02*
X128714285Y-70080057D01*
X128714285Y-70080057D02*
X128761904Y-70175295D01*
X128761904Y-70175295D02*
X128809523Y-70365771D01*
X128809523Y-70365771D02*
X128809523Y-70603866D01*
X128809523Y-70603866D02*
X128761904Y-70794342D01*
X128761904Y-70794342D02*
X128714285Y-70889580D01*
X128714285Y-70889580D02*
X128666666Y-70937200D01*
X128666666Y-70937200D02*
X128571428Y-70984819D01*
X128571428Y-70984819D02*
X128476190Y-70984819D01*
X128476190Y-70984819D02*
X128380952Y-70937200D01*
X128380952Y-70937200D02*
X128333333Y-70889580D01*
X128333333Y-70889580D02*
X128285714Y-70794342D01*
X128285714Y-70794342D02*
X128238095Y-70603866D01*
X128238095Y-70603866D02*
X128238095Y-70365771D01*
X128238095Y-70365771D02*
X128285714Y-70175295D01*
X128285714Y-70175295D02*
X128333333Y-70080057D01*
X128333333Y-70080057D02*
X128380952Y-70032438D01*
X128380952Y-70032438D02*
X128476190Y-69984819D01*
X129428571Y-69984819D02*
X129523809Y-69984819D01*
X129523809Y-69984819D02*
X129619047Y-70032438D01*
X129619047Y-70032438D02*
X129666666Y-70080057D01*
X129666666Y-70080057D02*
X129714285Y-70175295D01*
X129714285Y-70175295D02*
X129761904Y-70365771D01*
X129761904Y-70365771D02*
X129761904Y-70603866D01*
X129761904Y-70603866D02*
X129714285Y-70794342D01*
X129714285Y-70794342D02*
X129666666Y-70889580D01*
X129666666Y-70889580D02*
X129619047Y-70937200D01*
X129619047Y-70937200D02*
X129523809Y-70984819D01*
X129523809Y-70984819D02*
X129428571Y-70984819D01*
X129428571Y-70984819D02*
X129333333Y-70937200D01*
X129333333Y-70937200D02*
X129285714Y-70889580D01*
X129285714Y-70889580D02*
X129238095Y-70794342D01*
X129238095Y-70794342D02*
X129190476Y-70603866D01*
X129190476Y-70603866D02*
X129190476Y-70365771D01*
X129190476Y-70365771D02*
X129238095Y-70175295D01*
X129238095Y-70175295D02*
X129285714Y-70080057D01*
X129285714Y-70080057D02*
X129333333Y-70032438D01*
X129333333Y-70032438D02*
X129428571Y-69984819D01*
X130095238Y-69984819D02*
X130761904Y-69984819D01*
X130761904Y-69984819D02*
X130333333Y-70984819D01*
X137994819Y-79372857D02*
X137994819Y-79849047D01*
X137994819Y-79849047D02*
X136994819Y-79849047D01*
X137471009Y-79039523D02*
X137471009Y-78706190D01*
X137994819Y-78563333D02*
X137994819Y-79039523D01*
X137994819Y-79039523D02*
X136994819Y-79039523D01*
X136994819Y-79039523D02*
X136994819Y-78563333D01*
X137994819Y-78134761D02*
X136994819Y-78134761D01*
X136994819Y-78134761D02*
X136994819Y-77896666D01*
X136994819Y-77896666D02*
X137042438Y-77753809D01*
X137042438Y-77753809D02*
X137137676Y-77658571D01*
X137137676Y-77658571D02*
X137232914Y-77610952D01*
X137232914Y-77610952D02*
X137423390Y-77563333D01*
X137423390Y-77563333D02*
X137566247Y-77563333D01*
X137566247Y-77563333D02*
X137756723Y-77610952D01*
X137756723Y-77610952D02*
X137851961Y-77658571D01*
X137851961Y-77658571D02*
X137947200Y-77753809D01*
X137947200Y-77753809D02*
X137994819Y-77896666D01*
X137994819Y-77896666D02*
X137994819Y-78134761D01*
X138090057Y-77372857D02*
X138090057Y-76610952D01*
X137947200Y-76420475D02*
X137994819Y-76277618D01*
X137994819Y-76277618D02*
X137994819Y-76039523D01*
X137994819Y-76039523D02*
X137947200Y-75944285D01*
X137947200Y-75944285D02*
X137899580Y-75896666D01*
X137899580Y-75896666D02*
X137804342Y-75849047D01*
X137804342Y-75849047D02*
X137709104Y-75849047D01*
X137709104Y-75849047D02*
X137613866Y-75896666D01*
X137613866Y-75896666D02*
X137566247Y-75944285D01*
X137566247Y-75944285D02*
X137518628Y-76039523D01*
X137518628Y-76039523D02*
X137471009Y-76229999D01*
X137471009Y-76229999D02*
X137423390Y-76325237D01*
X137423390Y-76325237D02*
X137375771Y-76372856D01*
X137375771Y-76372856D02*
X137280533Y-76420475D01*
X137280533Y-76420475D02*
X137185295Y-76420475D01*
X137185295Y-76420475D02*
X137090057Y-76372856D01*
X137090057Y-76372856D02*
X137042438Y-76325237D01*
X137042438Y-76325237D02*
X136994819Y-76229999D01*
X136994819Y-76229999D02*
X136994819Y-75991904D01*
X136994819Y-75991904D02*
X137042438Y-75849047D01*
X137994819Y-75420475D02*
X137328152Y-75420475D01*
X137423390Y-75420475D02*
X137375771Y-75372856D01*
X137375771Y-75372856D02*
X137328152Y-75277618D01*
X137328152Y-75277618D02*
X137328152Y-75134761D01*
X137328152Y-75134761D02*
X137375771Y-75039523D01*
X137375771Y-75039523D02*
X137471009Y-74991904D01*
X137471009Y-74991904D02*
X137994819Y-74991904D01*
X137471009Y-74991904D02*
X137375771Y-74944285D01*
X137375771Y-74944285D02*
X137328152Y-74849047D01*
X137328152Y-74849047D02*
X137328152Y-74706190D01*
X137328152Y-74706190D02*
X137375771Y-74610951D01*
X137375771Y-74610951D02*
X137471009Y-74563332D01*
X137471009Y-74563332D02*
X137994819Y-74563332D01*
X137994819Y-73658571D02*
X137471009Y-73658571D01*
X137471009Y-73658571D02*
X137375771Y-73706190D01*
X137375771Y-73706190D02*
X137328152Y-73801428D01*
X137328152Y-73801428D02*
X137328152Y-73991904D01*
X137328152Y-73991904D02*
X137375771Y-74087142D01*
X137947200Y-73658571D02*
X137994819Y-73753809D01*
X137994819Y-73753809D02*
X137994819Y-73991904D01*
X137994819Y-73991904D02*
X137947200Y-74087142D01*
X137947200Y-74087142D02*
X137851961Y-74134761D01*
X137851961Y-74134761D02*
X137756723Y-74134761D01*
X137756723Y-74134761D02*
X137661485Y-74087142D01*
X137661485Y-74087142D02*
X137613866Y-73991904D01*
X137613866Y-73991904D02*
X137613866Y-73753809D01*
X137613866Y-73753809D02*
X137566247Y-73658571D01*
X137994819Y-73039523D02*
X137947200Y-73134761D01*
X137947200Y-73134761D02*
X137851961Y-73182380D01*
X137851961Y-73182380D02*
X136994819Y-73182380D01*
X137994819Y-72515713D02*
X137947200Y-72610951D01*
X137947200Y-72610951D02*
X137851961Y-72658570D01*
X137851961Y-72658570D02*
X136994819Y-72658570D01*
X176476190Y-122139938D02*
X176380952Y-122092319D01*
X176380952Y-122092319D02*
X176238095Y-122092319D01*
X176238095Y-122092319D02*
X176095238Y-122139938D01*
X176095238Y-122139938D02*
X176000000Y-122235176D01*
X176000000Y-122235176D02*
X175952381Y-122330414D01*
X175952381Y-122330414D02*
X175904762Y-122520890D01*
X175904762Y-122520890D02*
X175904762Y-122663747D01*
X175904762Y-122663747D02*
X175952381Y-122854223D01*
X175952381Y-122854223D02*
X176000000Y-122949461D01*
X176000000Y-122949461D02*
X176095238Y-123044700D01*
X176095238Y-123044700D02*
X176238095Y-123092319D01*
X176238095Y-123092319D02*
X176333333Y-123092319D01*
X176333333Y-123092319D02*
X176476190Y-123044700D01*
X176476190Y-123044700D02*
X176523809Y-122997080D01*
X176523809Y-122997080D02*
X176523809Y-122663747D01*
X176523809Y-122663747D02*
X176333333Y-122663747D01*
X176952381Y-123092319D02*
X176952381Y-122092319D01*
X176952381Y-122092319D02*
X177523809Y-123092319D01*
X177523809Y-123092319D02*
X177523809Y-122092319D01*
X178000000Y-123092319D02*
X178000000Y-122092319D01*
X178000000Y-122092319D02*
X178238095Y-122092319D01*
X178238095Y-122092319D02*
X178380952Y-122139938D01*
X178380952Y-122139938D02*
X178476190Y-122235176D01*
X178476190Y-122235176D02*
X178523809Y-122330414D01*
X178523809Y-122330414D02*
X178571428Y-122520890D01*
X178571428Y-122520890D02*
X178571428Y-122663747D01*
X178571428Y-122663747D02*
X178523809Y-122854223D01*
X178523809Y-122854223D02*
X178476190Y-122949461D01*
X178476190Y-122949461D02*
X178380952Y-123044700D01*
X178380952Y-123044700D02*
X178238095Y-123092319D01*
X178238095Y-123092319D02*
X178000000Y-123092319D01*
X178761905Y-123187557D02*
X179523809Y-123187557D01*
X180095238Y-122568509D02*
X179761905Y-122568509D01*
X179761905Y-123092319D02*
X179761905Y-122092319D01*
X179761905Y-122092319D02*
X180238095Y-122092319D01*
X180571429Y-122806604D02*
X181047619Y-122806604D01*
X180476191Y-123092319D02*
X180809524Y-122092319D01*
X180809524Y-122092319D02*
X181142857Y-123092319D01*
X181476191Y-123092319D02*
X181476191Y-122092319D01*
X181476191Y-122092319D02*
X182047619Y-123092319D01*
X182047619Y-123092319D02*
X182047619Y-122092319D01*
X204669104Y-90714762D02*
X204669104Y-90238572D01*
X204954819Y-90810000D02*
X203954819Y-90476667D01*
X203954819Y-90476667D02*
X204954819Y-90143334D01*
X204954819Y-89810000D02*
X204288152Y-89810000D01*
X204478628Y-89810000D02*
X204383390Y-89762381D01*
X204383390Y-89762381D02*
X204335771Y-89714762D01*
X204335771Y-89714762D02*
X204288152Y-89619524D01*
X204288152Y-89619524D02*
X204288152Y-89524286D01*
X204954819Y-88762381D02*
X203954819Y-88762381D01*
X204907200Y-88762381D02*
X204954819Y-88857619D01*
X204954819Y-88857619D02*
X204954819Y-89048095D01*
X204954819Y-89048095D02*
X204907200Y-89143333D01*
X204907200Y-89143333D02*
X204859580Y-89190952D01*
X204859580Y-89190952D02*
X204764342Y-89238571D01*
X204764342Y-89238571D02*
X204478628Y-89238571D01*
X204478628Y-89238571D02*
X204383390Y-89190952D01*
X204383390Y-89190952D02*
X204335771Y-89143333D01*
X204335771Y-89143333D02*
X204288152Y-89048095D01*
X204288152Y-89048095D02*
X204288152Y-88857619D01*
X204288152Y-88857619D02*
X204335771Y-88762381D01*
X204288152Y-87857619D02*
X204954819Y-87857619D01*
X204288152Y-88286190D02*
X204811961Y-88286190D01*
X204811961Y-88286190D02*
X204907200Y-88238571D01*
X204907200Y-88238571D02*
X204954819Y-88143333D01*
X204954819Y-88143333D02*
X204954819Y-88000476D01*
X204954819Y-88000476D02*
X204907200Y-87905238D01*
X204907200Y-87905238D02*
X204859580Y-87857619D01*
X204954819Y-87381428D02*
X204288152Y-87381428D01*
X203954819Y-87381428D02*
X204002438Y-87429047D01*
X204002438Y-87429047D02*
X204050057Y-87381428D01*
X204050057Y-87381428D02*
X204002438Y-87333809D01*
X204002438Y-87333809D02*
X203954819Y-87381428D01*
X203954819Y-87381428D02*
X204050057Y-87381428D01*
X204288152Y-86905238D02*
X204954819Y-86905238D01*
X204383390Y-86905238D02*
X204335771Y-86857619D01*
X204335771Y-86857619D02*
X204288152Y-86762381D01*
X204288152Y-86762381D02*
X204288152Y-86619524D01*
X204288152Y-86619524D02*
X204335771Y-86524286D01*
X204335771Y-86524286D02*
X204431009Y-86476667D01*
X204431009Y-86476667D02*
X204954819Y-86476667D01*
X204954819Y-85857619D02*
X204907200Y-85952857D01*
X204907200Y-85952857D02*
X204859580Y-86000476D01*
X204859580Y-86000476D02*
X204764342Y-86048095D01*
X204764342Y-86048095D02*
X204478628Y-86048095D01*
X204478628Y-86048095D02*
X204383390Y-86000476D01*
X204383390Y-86000476D02*
X204335771Y-85952857D01*
X204335771Y-85952857D02*
X204288152Y-85857619D01*
X204288152Y-85857619D02*
X204288152Y-85714762D01*
X204288152Y-85714762D02*
X204335771Y-85619524D01*
X204335771Y-85619524D02*
X204383390Y-85571905D01*
X204383390Y-85571905D02*
X204478628Y-85524286D01*
X204478628Y-85524286D02*
X204764342Y-85524286D01*
X204764342Y-85524286D02*
X204859580Y-85571905D01*
X204859580Y-85571905D02*
X204907200Y-85619524D01*
X204907200Y-85619524D02*
X204954819Y-85714762D01*
X204954819Y-85714762D02*
X204954819Y-85857619D01*
X205050057Y-85333810D02*
X205050057Y-84571905D01*
X204288152Y-84333809D02*
X205288152Y-84333809D01*
X204335771Y-84333809D02*
X204288152Y-84238571D01*
X204288152Y-84238571D02*
X204288152Y-84048095D01*
X204288152Y-84048095D02*
X204335771Y-83952857D01*
X204335771Y-83952857D02*
X204383390Y-83905238D01*
X204383390Y-83905238D02*
X204478628Y-83857619D01*
X204478628Y-83857619D02*
X204764342Y-83857619D01*
X204764342Y-83857619D02*
X204859580Y-83905238D01*
X204859580Y-83905238D02*
X204907200Y-83952857D01*
X204907200Y-83952857D02*
X204954819Y-84048095D01*
X204954819Y-84048095D02*
X204954819Y-84238571D01*
X204954819Y-84238571D02*
X204907200Y-84333809D01*
X204954819Y-83286190D02*
X204907200Y-83381428D01*
X204907200Y-83381428D02*
X204859580Y-83429047D01*
X204859580Y-83429047D02*
X204764342Y-83476666D01*
X204764342Y-83476666D02*
X204478628Y-83476666D01*
X204478628Y-83476666D02*
X204383390Y-83429047D01*
X204383390Y-83429047D02*
X204335771Y-83381428D01*
X204335771Y-83381428D02*
X204288152Y-83286190D01*
X204288152Y-83286190D02*
X204288152Y-83143333D01*
X204288152Y-83143333D02*
X204335771Y-83048095D01*
X204335771Y-83048095D02*
X204383390Y-83000476D01*
X204383390Y-83000476D02*
X204478628Y-82952857D01*
X204478628Y-82952857D02*
X204764342Y-82952857D01*
X204764342Y-82952857D02*
X204859580Y-83000476D01*
X204859580Y-83000476D02*
X204907200Y-83048095D01*
X204907200Y-83048095D02*
X204954819Y-83143333D01*
X204954819Y-83143333D02*
X204954819Y-83286190D01*
X204288152Y-82619523D02*
X204954819Y-82429047D01*
X204954819Y-82429047D02*
X204478628Y-82238571D01*
X204478628Y-82238571D02*
X204954819Y-82048095D01*
X204954819Y-82048095D02*
X204288152Y-81857619D01*
X204907200Y-81095714D02*
X204954819Y-81190952D01*
X204954819Y-81190952D02*
X204954819Y-81381428D01*
X204954819Y-81381428D02*
X204907200Y-81476666D01*
X204907200Y-81476666D02*
X204811961Y-81524285D01*
X204811961Y-81524285D02*
X204431009Y-81524285D01*
X204431009Y-81524285D02*
X204335771Y-81476666D01*
X204335771Y-81476666D02*
X204288152Y-81381428D01*
X204288152Y-81381428D02*
X204288152Y-81190952D01*
X204288152Y-81190952D02*
X204335771Y-81095714D01*
X204335771Y-81095714D02*
X204431009Y-81048095D01*
X204431009Y-81048095D02*
X204526247Y-81048095D01*
X204526247Y-81048095D02*
X204621485Y-81524285D01*
X204954819Y-80619523D02*
X204288152Y-80619523D01*
X204478628Y-80619523D02*
X204383390Y-80571904D01*
X204383390Y-80571904D02*
X204335771Y-80524285D01*
X204335771Y-80524285D02*
X204288152Y-80429047D01*
X204288152Y-80429047D02*
X204288152Y-80333809D01*
X205050057Y-80238571D02*
X205050057Y-79476666D01*
X204907200Y-79286189D02*
X204954819Y-79190951D01*
X204954819Y-79190951D02*
X204954819Y-79000475D01*
X204954819Y-79000475D02*
X204907200Y-78905237D01*
X204907200Y-78905237D02*
X204811961Y-78857618D01*
X204811961Y-78857618D02*
X204764342Y-78857618D01*
X204764342Y-78857618D02*
X204669104Y-78905237D01*
X204669104Y-78905237D02*
X204621485Y-79000475D01*
X204621485Y-79000475D02*
X204621485Y-79143332D01*
X204621485Y-79143332D02*
X204573866Y-79238570D01*
X204573866Y-79238570D02*
X204478628Y-79286189D01*
X204478628Y-79286189D02*
X204431009Y-79286189D01*
X204431009Y-79286189D02*
X204335771Y-79238570D01*
X204335771Y-79238570D02*
X204288152Y-79143332D01*
X204288152Y-79143332D02*
X204288152Y-79000475D01*
X204288152Y-79000475D02*
X204335771Y-78905237D01*
X204288152Y-78000475D02*
X204954819Y-78000475D01*
X204288152Y-78429046D02*
X204811961Y-78429046D01*
X204811961Y-78429046D02*
X204907200Y-78381427D01*
X204907200Y-78381427D02*
X204954819Y-78286189D01*
X204954819Y-78286189D02*
X204954819Y-78143332D01*
X204954819Y-78143332D02*
X204907200Y-78048094D01*
X204907200Y-78048094D02*
X204859580Y-78000475D01*
X204288152Y-77524284D02*
X205288152Y-77524284D01*
X204335771Y-77524284D02*
X204288152Y-77429046D01*
X204288152Y-77429046D02*
X204288152Y-77238570D01*
X204288152Y-77238570D02*
X204335771Y-77143332D01*
X204335771Y-77143332D02*
X204383390Y-77095713D01*
X204383390Y-77095713D02*
X204478628Y-77048094D01*
X204478628Y-77048094D02*
X204764342Y-77048094D01*
X204764342Y-77048094D02*
X204859580Y-77095713D01*
X204859580Y-77095713D02*
X204907200Y-77143332D01*
X204907200Y-77143332D02*
X204954819Y-77238570D01*
X204954819Y-77238570D02*
X204954819Y-77429046D01*
X204954819Y-77429046D02*
X204907200Y-77524284D01*
X204288152Y-76619522D02*
X205288152Y-76619522D01*
X204335771Y-76619522D02*
X204288152Y-76524284D01*
X204288152Y-76524284D02*
X204288152Y-76333808D01*
X204288152Y-76333808D02*
X204335771Y-76238570D01*
X204335771Y-76238570D02*
X204383390Y-76190951D01*
X204383390Y-76190951D02*
X204478628Y-76143332D01*
X204478628Y-76143332D02*
X204764342Y-76143332D01*
X204764342Y-76143332D02*
X204859580Y-76190951D01*
X204859580Y-76190951D02*
X204907200Y-76238570D01*
X204907200Y-76238570D02*
X204954819Y-76333808D01*
X204954819Y-76333808D02*
X204954819Y-76524284D01*
X204954819Y-76524284D02*
X204907200Y-76619522D01*
X204954819Y-75571903D02*
X204907200Y-75667141D01*
X204907200Y-75667141D02*
X204811961Y-75714760D01*
X204811961Y-75714760D02*
X203954819Y-75714760D01*
X204288152Y-75286188D02*
X204954819Y-75048093D01*
X204288152Y-74809998D02*
X204954819Y-75048093D01*
X204954819Y-75048093D02*
X205192914Y-75143331D01*
X205192914Y-75143331D02*
X205240533Y-75190950D01*
X205240533Y-75190950D02*
X205288152Y-75286188D01*
X204954819Y-73905236D02*
X204954819Y-74476664D01*
X204954819Y-74190950D02*
X203954819Y-74190950D01*
X203954819Y-74190950D02*
X204097676Y-74286188D01*
X204097676Y-74286188D02*
X204192914Y-74381426D01*
X204192914Y-74381426D02*
X204240533Y-74476664D01*
X126451905Y-116050057D02*
X126499524Y-116002438D01*
X126499524Y-116002438D02*
X126594762Y-115954819D01*
X126594762Y-115954819D02*
X126832857Y-115954819D01*
X126832857Y-115954819D02*
X126928095Y-116002438D01*
X126928095Y-116002438D02*
X126975714Y-116050057D01*
X126975714Y-116050057D02*
X127023333Y-116145295D01*
X127023333Y-116145295D02*
X127023333Y-116240533D01*
X127023333Y-116240533D02*
X126975714Y-116383390D01*
X126975714Y-116383390D02*
X126404286Y-116954819D01*
X126404286Y-116954819D02*
X127023333Y-116954819D01*
X127404286Y-116050057D02*
X127451905Y-116002438D01*
X127451905Y-116002438D02*
X127547143Y-115954819D01*
X127547143Y-115954819D02*
X127785238Y-115954819D01*
X127785238Y-115954819D02*
X127880476Y-116002438D01*
X127880476Y-116002438D02*
X127928095Y-116050057D01*
X127928095Y-116050057D02*
X127975714Y-116145295D01*
X127975714Y-116145295D02*
X127975714Y-116240533D01*
X127975714Y-116240533D02*
X127928095Y-116383390D01*
X127928095Y-116383390D02*
X127356667Y-116954819D01*
X127356667Y-116954819D02*
X127975714Y-116954819D01*
X128594762Y-115954819D02*
X128690000Y-115954819D01*
X128690000Y-115954819D02*
X128785238Y-116002438D01*
X128785238Y-116002438D02*
X128832857Y-116050057D01*
X128832857Y-116050057D02*
X128880476Y-116145295D01*
X128880476Y-116145295D02*
X128928095Y-116335771D01*
X128928095Y-116335771D02*
X128928095Y-116573866D01*
X128928095Y-116573866D02*
X128880476Y-116764342D01*
X128880476Y-116764342D02*
X128832857Y-116859580D01*
X128832857Y-116859580D02*
X128785238Y-116907200D01*
X128785238Y-116907200D02*
X128690000Y-116954819D01*
X128690000Y-116954819D02*
X128594762Y-116954819D01*
X128594762Y-116954819D02*
X128499524Y-116907200D01*
X128499524Y-116907200D02*
X128451905Y-116859580D01*
X128451905Y-116859580D02*
X128404286Y-116764342D01*
X128404286Y-116764342D02*
X128356667Y-116573866D01*
X128356667Y-116573866D02*
X128356667Y-116335771D01*
X128356667Y-116335771D02*
X128404286Y-116145295D01*
X128404286Y-116145295D02*
X128451905Y-116050057D01*
X128451905Y-116050057D02*
X128499524Y-116002438D01*
X128499524Y-116002438D02*
X128594762Y-115954819D01*
D14*
%TO.C,R6*%
X155230000Y-78130000D02*
X161770000Y-78130000D01*
X155230000Y-78460000D02*
X155230000Y-78130000D01*
X155230000Y-80540000D02*
X155230000Y-80870000D01*
X155230000Y-80870000D02*
X161770000Y-80870000D01*
X161770000Y-78130000D02*
X161770000Y-78460000D01*
X161770000Y-80870000D02*
X161770000Y-80540000D01*
%TO.C,K2*%
X113600000Y-112250000D02*
X113600000Y-113750000D01*
X113600000Y-113750000D02*
X115100000Y-113750000D01*
X113800000Y-100450000D02*
X113800000Y-113550000D01*
X113800000Y-113550000D02*
X143200000Y-113550000D01*
X118890000Y-104400000D02*
X118890000Y-109480000D01*
D10*
X118890000Y-108210000D02*
X121430000Y-106940000D01*
D14*
X118890000Y-109480000D02*
X120160000Y-109480000D01*
X118890000Y-110750000D02*
X120160000Y-110750000D01*
X120160000Y-103130000D02*
X118890000Y-103130000D01*
X120160000Y-104400000D02*
X120160000Y-103130000D01*
X120160000Y-109480000D02*
X121430000Y-109480000D01*
X120160000Y-110750000D02*
X120160000Y-109480000D01*
X121430000Y-104400000D02*
X118890000Y-104400000D01*
X121430000Y-109480000D02*
X121430000Y-104400000D01*
X143200000Y-100450000D02*
X113800000Y-100450000D01*
X143200000Y-113550000D02*
X143200000Y-100450000D01*
%TO.C,Q4*%
X167700000Y-122210000D02*
X171300000Y-122210000D01*
X167661522Y-122198478D02*
G75*
G02*
X169500000Y-117759999I1838478J1838478D01*
G01*
X169500000Y-117760000D02*
G75*
G02*
X171338478Y-122198478I0J-2600000D01*
G01*
%TO.C,VCC_MOTOR1*%
X183690000Y-106727500D02*
X190310000Y-106727500D01*
X183690000Y-121347500D02*
X183690000Y-106727500D01*
X184300000Y-121347500D02*
X184550000Y-119847500D01*
X184550000Y-119847500D02*
X188050000Y-119847500D01*
X185800000Y-105927500D02*
X186100000Y-106527500D01*
X185800000Y-105927500D02*
X186400000Y-105927500D01*
X186400000Y-105927500D02*
X186100000Y-106527500D01*
X188300000Y-121347500D02*
X188050000Y-119847500D01*
X190310000Y-106727500D02*
X190310000Y-121347500D01*
X190310000Y-121347500D02*
X183690000Y-121347500D01*
%TO.C,Digital_4*%
X175690000Y-74782500D02*
X182310000Y-74782500D01*
X175690000Y-89402500D02*
X175690000Y-74782500D01*
X177700000Y-74782500D02*
X177950000Y-76282500D01*
X179600000Y-90202500D02*
X179900000Y-89602500D01*
X180200000Y-90202500D02*
X179600000Y-90202500D01*
X180200000Y-90202500D02*
X179900000Y-89602500D01*
X181450000Y-76282500D02*
X177950000Y-76282500D01*
X181700000Y-74782500D02*
X181450000Y-76282500D01*
X182310000Y-74782500D02*
X182310000Y-89402500D01*
X182310000Y-89402500D02*
X175690000Y-89402500D01*
%TO.C,K4*%
X143600000Y-112250000D02*
X143600000Y-113750000D01*
X143600000Y-113750000D02*
X145100000Y-113750000D01*
X143800000Y-100450000D02*
X143800000Y-113550000D01*
X143800000Y-113550000D02*
X173200000Y-113550000D01*
X148890000Y-104400000D02*
X148890000Y-109480000D01*
D10*
X148890000Y-108210000D02*
X151430000Y-106940000D01*
D14*
X148890000Y-109480000D02*
X150160000Y-109480000D01*
X148890000Y-110750000D02*
X150160000Y-110750000D01*
X150160000Y-103130000D02*
X148890000Y-103130000D01*
X150160000Y-104400000D02*
X150160000Y-103130000D01*
X150160000Y-109480000D02*
X151430000Y-109480000D01*
X150160000Y-110750000D02*
X150160000Y-109480000D01*
X151430000Y-104400000D02*
X148890000Y-104400000D01*
X151430000Y-109480000D02*
X151430000Y-104400000D01*
X173200000Y-100450000D02*
X143800000Y-100450000D01*
X173200000Y-113550000D02*
X173200000Y-100450000D01*
%TO.C,D3*%
X154650000Y-73000000D02*
X155670000Y-73000000D01*
X156450000Y-71530000D02*
X156450000Y-74470000D01*
X156570000Y-71530000D02*
X156570000Y-74470000D01*
X156690000Y-71530000D02*
X156690000Y-74470000D01*
X162130000Y-73000000D02*
X161110000Y-73000000D01*
X155670000Y-71530000D02*
X161110000Y-71530000D01*
X161110000Y-74470000D01*
X155670000Y-74470000D01*
X155670000Y-71530000D01*
%TO.C,R5*%
X177040000Y-94130000D02*
X183580000Y-94130000D01*
X177040000Y-94460000D02*
X177040000Y-94130000D01*
X177040000Y-96540000D02*
X177040000Y-96870000D01*
X177040000Y-96870000D02*
X183580000Y-96870000D01*
X183580000Y-94130000D02*
X183580000Y-94460000D01*
X183580000Y-96870000D02*
X183580000Y-96540000D01*
%TO.C,K1*%
X113750000Y-95250000D02*
X113750000Y-96750000D01*
X113750000Y-96750000D02*
X115250000Y-96750000D01*
X113950000Y-83450000D02*
X113950000Y-96550000D01*
X113950000Y-96550000D02*
X143350000Y-96550000D01*
X119040000Y-87400000D02*
X119040000Y-92480000D01*
D10*
X119040000Y-91210000D02*
X121580000Y-89940000D01*
D14*
X119040000Y-92480000D02*
X120310000Y-92480000D01*
X119040000Y-93750000D02*
X120310000Y-93750000D01*
X120310000Y-86130000D02*
X119040000Y-86130000D01*
X120310000Y-87400000D02*
X120310000Y-86130000D01*
X120310000Y-92480000D02*
X121580000Y-92480000D01*
X120310000Y-93750000D02*
X120310000Y-92480000D01*
X121580000Y-87400000D02*
X119040000Y-87400000D01*
X121580000Y-92480000D02*
X121580000Y-87400000D01*
X143350000Y-83450000D02*
X113950000Y-83450000D01*
X143350000Y-96550000D02*
X143350000Y-83450000D01*
%TO.C,R2*%
X124420000Y-78130000D02*
X124420000Y-78460000D01*
X124420000Y-80870000D02*
X124420000Y-80540000D01*
X130960000Y-78130000D02*
X124420000Y-78130000D01*
X130960000Y-78460000D02*
X130960000Y-78130000D01*
X130960000Y-80540000D02*
X130960000Y-80870000D01*
X130960000Y-80870000D02*
X124420000Y-80870000D01*
%TO.C,Digital_3*%
X183190000Y-74782500D02*
X189810000Y-74782500D01*
X183190000Y-89402500D02*
X183190000Y-74782500D01*
X185200000Y-74782500D02*
X185450000Y-76282500D01*
X187100000Y-90202500D02*
X187400000Y-89602500D01*
X187700000Y-90202500D02*
X187100000Y-90202500D01*
X187700000Y-90202500D02*
X187400000Y-89602500D01*
X188950000Y-76282500D02*
X185450000Y-76282500D01*
X189200000Y-74782500D02*
X188950000Y-76282500D01*
X189810000Y-74782500D02*
X189810000Y-89402500D01*
X189810000Y-89402500D02*
X183190000Y-89402500D01*
%TO.C,R1*%
X109130000Y-87230000D02*
X109130000Y-93770000D01*
X109130000Y-93770000D02*
X109460000Y-93770000D01*
X109460000Y-87230000D02*
X109130000Y-87230000D01*
X111540000Y-87230000D02*
X111870000Y-87230000D01*
X111870000Y-87230000D02*
X111870000Y-93770000D01*
X111870000Y-93770000D02*
X111540000Y-93770000D01*
%TO.C,LED3*%
X145420000Y-74710000D02*
X145264000Y-74710000D01*
X147736000Y-74710000D02*
X147580000Y-74710000D01*
X145420000Y-77310961D02*
G75*
G02*
X145420000Y-75229039I1080000J1040961D01*
G01*
X145420000Y-77941437D02*
G75*
G02*
X145264484Y-74710000I1080000J1671437D01*
G01*
X147580000Y-75229039D02*
G75*
G02*
X147580000Y-77310961I-1080000J-1040961D01*
G01*
X147735516Y-74710000D02*
G75*
G02*
X147580000Y-77941437I-1235516J-1560000D01*
G01*
%TO.C,R8*%
X154730000Y-117130000D02*
X161270000Y-117130000D01*
X154730000Y-117460000D02*
X154730000Y-117130000D01*
X154730000Y-119540000D02*
X154730000Y-119870000D01*
X154730000Y-119870000D02*
X161270000Y-119870000D01*
X161270000Y-117130000D02*
X161270000Y-117460000D01*
X161270000Y-119870000D02*
X161270000Y-119540000D01*
%TO.C,Q1*%
X118800000Y-74790000D02*
X115200000Y-74790000D01*
X117000000Y-79240000D02*
G75*
G02*
X115161522Y-74801522I0J2600000D01*
G01*
X118838478Y-74801522D02*
G75*
G02*
X117000000Y-79240001I-1838478J-1838478D01*
G01*
%TO.C,R7*%
X177040000Y-99630000D02*
X183580000Y-99630000D01*
X177040000Y-99960000D02*
X177040000Y-99630000D01*
X177040000Y-102040000D02*
X177040000Y-102370000D01*
X177040000Y-102370000D02*
X183580000Y-102370000D01*
X183580000Y-99630000D02*
X183580000Y-99960000D01*
X183580000Y-102370000D02*
X183580000Y-102040000D01*
%TO.C,LED2*%
X139264000Y-121330000D02*
X139420000Y-121330000D01*
X141580000Y-121330000D02*
X141736000Y-121330000D01*
X139264484Y-121330000D02*
G75*
G02*
X139420000Y-118098563I1235516J1560000D01*
G01*
X139420000Y-120810961D02*
G75*
G02*
X139420000Y-118729039I1080000J1040961D01*
G01*
X141580000Y-118098563D02*
G75*
G02*
X141735516Y-121330000I-1080000J-1671437D01*
G01*
X141580000Y-118729039D02*
G75*
G02*
X141580000Y-120810961I-1080000J-1040961D01*
G01*
%TO.C,D4*%
X154260000Y-125050000D02*
X155280000Y-125050000D01*
X156060000Y-123580000D02*
X156060000Y-126520000D01*
X156180000Y-123580000D02*
X156180000Y-126520000D01*
X156300000Y-123580000D02*
X156300000Y-126520000D01*
X161740000Y-125050000D02*
X160720000Y-125050000D01*
X155280000Y-123580000D02*
X160720000Y-123580000D01*
X160720000Y-126520000D01*
X155280000Y-126520000D01*
X155280000Y-123580000D01*
%TO.C,M2*%
X190590000Y-118320000D02*
X191190000Y-118620000D01*
X190590000Y-118920000D02*
X190590000Y-118320000D01*
X191190000Y-118620000D02*
X190590000Y-118920000D01*
X191390000Y-107080000D02*
X191390000Y-122540000D01*
X191390000Y-122540000D02*
X203610000Y-122540000D01*
X200310000Y-107080000D02*
X202110000Y-107080000D01*
X200310000Y-122540000D02*
X200310000Y-107080000D01*
X202110000Y-107080000D02*
X202110000Y-122540000D01*
X202110000Y-110250000D02*
X202110000Y-111750000D01*
X202110000Y-111750000D02*
X203610000Y-112000000D01*
X202110000Y-117870000D02*
X202110000Y-119370000D01*
X202110000Y-119370000D02*
X203610000Y-119620000D01*
X202110000Y-122540000D02*
X200310000Y-122540000D01*
X203610000Y-107080000D02*
X191390000Y-107080000D01*
X203610000Y-110000000D02*
X202110000Y-110250000D01*
X203610000Y-112000000D02*
X203610000Y-110000000D01*
X203610000Y-117620000D02*
X202110000Y-117870000D01*
X203610000Y-119620000D02*
X203610000Y-117620000D01*
X203610000Y-122540000D02*
X203610000Y-107080000D01*
%TO.C,D2*%
X123680000Y-125000000D02*
X124700000Y-125000000D01*
X125480000Y-123530000D02*
X125480000Y-126470000D01*
X125600000Y-123530000D02*
X125600000Y-126470000D01*
X125720000Y-123530000D02*
X125720000Y-126470000D01*
X131160000Y-125000000D02*
X130140000Y-125000000D01*
X124700000Y-123530000D02*
X130140000Y-123530000D01*
X130140000Y-126470000D01*
X124700000Y-126470000D01*
X124700000Y-123530000D01*
%TO.C,R3*%
X109130000Y-103730000D02*
X109460000Y-103730000D01*
X109130000Y-110270000D02*
X109130000Y-103730000D01*
X109460000Y-110270000D02*
X109130000Y-110270000D01*
X111540000Y-110270000D02*
X111870000Y-110270000D01*
X111870000Y-103730000D02*
X111540000Y-103730000D01*
X111870000Y-110270000D02*
X111870000Y-103730000D01*
%TO.C,LED4*%
X145264000Y-121340000D02*
X145420000Y-121340000D01*
X147580000Y-121340000D02*
X147736000Y-121340000D01*
X145264484Y-121340000D02*
G75*
G02*
X145420000Y-118108563I1235516J1560000D01*
G01*
X145420000Y-120820961D02*
G75*
G02*
X145420000Y-118739039I1080000J1040961D01*
G01*
X147580000Y-118108563D02*
G75*
G02*
X147735516Y-121340000I-1080000J-1671437D01*
G01*
X147580000Y-118739039D02*
G75*
G02*
X147580000Y-120820961I-1080000J-1040961D01*
G01*
%TO.C,K3*%
X144100000Y-95250000D02*
X144100000Y-96750000D01*
X144100000Y-96750000D02*
X145600000Y-96750000D01*
X144300000Y-83450000D02*
X144300000Y-96550000D01*
X144300000Y-96550000D02*
X173700000Y-96550000D01*
X149390000Y-87400000D02*
X149390000Y-92480000D01*
D10*
X149390000Y-91210000D02*
X151930000Y-89940000D01*
D14*
X149390000Y-92480000D02*
X150660000Y-92480000D01*
X149390000Y-93750000D02*
X150660000Y-93750000D01*
X150660000Y-86130000D02*
X149390000Y-86130000D01*
X150660000Y-87400000D02*
X150660000Y-86130000D01*
X150660000Y-92480000D02*
X151930000Y-92480000D01*
X150660000Y-93750000D02*
X150660000Y-92480000D01*
X151930000Y-87400000D02*
X149390000Y-87400000D01*
X151930000Y-92480000D02*
X151930000Y-87400000D01*
X173700000Y-83450000D02*
X144300000Y-83450000D01*
X173700000Y-96550000D02*
X173700000Y-83450000D01*
%TO.C,Q2*%
X114930000Y-122850000D02*
X118530000Y-122850000D01*
X114891522Y-122838478D02*
G75*
G02*
X116730000Y-118399999I1838478J1838478D01*
G01*
X116730000Y-118400000D02*
G75*
G02*
X118568478Y-122838478I0J-2600000D01*
G01*
%TO.C,Q3*%
X171800000Y-75700000D02*
X168200000Y-75700000D01*
X170000000Y-80150000D02*
G75*
G02*
X168161522Y-75711522I0J2600000D01*
G01*
X171838478Y-75711522D02*
G75*
G02*
X170000000Y-80150001I-1838478J-1838478D01*
G01*
%TO.C,D1*%
X124260000Y-73000000D02*
X125280000Y-73000000D01*
X129700000Y-74470000D02*
X129700000Y-71530000D01*
X129820000Y-74470000D02*
X129820000Y-71530000D01*
X129940000Y-74470000D02*
X129940000Y-71530000D01*
X131740000Y-73000000D02*
X130720000Y-73000000D01*
X130720000Y-74470000D02*
X125280000Y-74470000D01*
X125280000Y-71530000D01*
X130720000Y-71530000D01*
X130720000Y-74470000D01*
%TO.C,LED1*%
X139420000Y-74670000D02*
X139264000Y-74670000D01*
X141736000Y-74670000D02*
X141580000Y-74670000D01*
X139420000Y-77270961D02*
G75*
G02*
X139420000Y-75189039I1080000J1040961D01*
G01*
X139420000Y-77901437D02*
G75*
G02*
X139264484Y-74670000I1080000J1671437D01*
G01*
X141580000Y-75189039D02*
G75*
G02*
X141580000Y-77270961I-1080000J-1040961D01*
G01*
X141735516Y-74670000D02*
G75*
G02*
X141580000Y-77901437I-1235516J-1560000D01*
G01*
%TO.C,GND1*%
X175690000Y-106727500D02*
X182310000Y-106727500D01*
X175690000Y-121347500D02*
X175690000Y-106727500D01*
X176300000Y-121347500D02*
X176550000Y-119847500D01*
X176550000Y-119847500D02*
X180050000Y-119847500D01*
X177800000Y-105927500D02*
X178100000Y-106527500D01*
X177800000Y-105927500D02*
X178400000Y-105927500D01*
X178400000Y-105927500D02*
X178100000Y-106527500D01*
X180300000Y-121347500D02*
X180050000Y-119847500D01*
X182310000Y-106727500D02*
X182310000Y-121347500D01*
X182310000Y-121347500D02*
X175690000Y-121347500D01*
%TO.C,Arduino_power_supply1*%
X190312500Y-85820000D02*
X190912500Y-86120000D01*
X190312500Y-86420000D02*
X190312500Y-85820000D01*
X190912500Y-86120000D02*
X190312500Y-86420000D01*
X191112500Y-74580000D02*
X191112500Y-90040000D01*
X191112500Y-90040000D02*
X203332500Y-90040000D01*
X200032500Y-74580000D02*
X201832500Y-74580000D01*
X200032500Y-90040000D02*
X200032500Y-74580000D01*
X201832500Y-74580000D02*
X201832500Y-90040000D01*
X201832500Y-77750000D02*
X201832500Y-79250000D01*
X201832500Y-79250000D02*
X203332500Y-79500000D01*
X201832500Y-85370000D02*
X201832500Y-86870000D01*
X201832500Y-86870000D02*
X203332500Y-87120000D01*
X201832500Y-90040000D02*
X200032500Y-90040000D01*
X203332500Y-74580000D02*
X191112500Y-74580000D01*
X203332500Y-77500000D02*
X201832500Y-77750000D01*
X203332500Y-79500000D02*
X203332500Y-77500000D01*
X203332500Y-85120000D02*
X201832500Y-85370000D01*
X203332500Y-87120000D02*
X203332500Y-85120000D01*
X203332500Y-90040000D02*
X203332500Y-74580000D01*
%TO.C,R4*%
X124420000Y-117180000D02*
X124420000Y-117510000D01*
X124420000Y-119920000D02*
X124420000Y-119590000D01*
X130960000Y-117180000D02*
X124420000Y-117180000D01*
X130960000Y-117510000D02*
X130960000Y-117180000D01*
X130960000Y-119590000D02*
X130960000Y-119920000D01*
X130960000Y-119920000D02*
X124420000Y-119920000D01*
%TD*%
%LPC*%
D15*
%TO.C,R6*%
X154690000Y-79500000D03*
X162310000Y-79500000D03*
%TD*%
D16*
%TO.C,K2*%
X136650000Y-103250000D03*
X131610000Y-110750000D03*
X141690000Y-110750000D03*
D17*
X116350000Y-110750000D03*
D18*
X116350000Y-103250000D03*
%TD*%
D19*
%TO.C,Q4*%
X168230000Y-120360000D03*
D20*
X169500000Y-120360000D03*
X170770000Y-120360000D03*
%TD*%
D21*
%TO.C,VCC_MOTOR1*%
X186100000Y-109367500D03*
X186100000Y-117567500D03*
%TD*%
D22*
%TO.C,Digital_4*%
X179900000Y-86762500D03*
X179900000Y-78562500D03*
%TD*%
D16*
%TO.C,K4*%
X166650000Y-103250000D03*
X161610000Y-110750000D03*
X171690000Y-110750000D03*
D17*
X146350000Y-110750000D03*
D18*
X146350000Y-103250000D03*
%TD*%
D23*
%TO.C,D3*%
X153310000Y-73000000D03*
D24*
X163470000Y-73000000D03*
%TD*%
D15*
%TO.C,R5*%
X176500000Y-95500000D03*
X184120000Y-95500000D03*
%TD*%
D16*
%TO.C,K1*%
X136800000Y-86250000D03*
X131760000Y-93750000D03*
X141840000Y-93750000D03*
D17*
X116500000Y-93750000D03*
D18*
X116500000Y-86250000D03*
%TD*%
D15*
%TO.C,R2*%
X131500000Y-79500000D03*
X123880000Y-79500000D03*
%TD*%
D22*
%TO.C,Digital_3*%
X187400000Y-86762500D03*
X187400000Y-78562500D03*
%TD*%
D15*
%TO.C,R1*%
X110500000Y-86690000D03*
X110500000Y-94310000D03*
%TD*%
D25*
%TO.C,LED3*%
X146500000Y-75000000D03*
D26*
X146500000Y-77540000D03*
%TD*%
D15*
%TO.C,R8*%
X154190000Y-118500000D03*
X161810000Y-118500000D03*
%TD*%
D19*
%TO.C,Q1*%
X118270000Y-76640000D03*
D20*
X117000000Y-76640000D03*
X115730000Y-76640000D03*
%TD*%
D15*
%TO.C,R7*%
X176500000Y-101000000D03*
X184120000Y-101000000D03*
%TD*%
D25*
%TO.C,LED2*%
X140500000Y-121040000D03*
D26*
X140500000Y-118500000D03*
%TD*%
D23*
%TO.C,D4*%
X152920000Y-125050000D03*
D24*
X163080000Y-125050000D03*
%TD*%
D27*
%TO.C,M2*%
X193500000Y-118620000D03*
D28*
X193500000Y-111000000D03*
%TD*%
D23*
%TO.C,D2*%
X122340000Y-125000000D03*
D24*
X132500000Y-125000000D03*
%TD*%
D15*
%TO.C,R3*%
X110500000Y-110810000D03*
X110500000Y-103190000D03*
%TD*%
D25*
%TO.C,LED4*%
X146500000Y-121050000D03*
D26*
X146500000Y-118510000D03*
%TD*%
D16*
%TO.C,K3*%
X167150000Y-86250000D03*
X162110000Y-93750000D03*
X172190000Y-93750000D03*
D17*
X146850000Y-93750000D03*
D18*
X146850000Y-86250000D03*
%TD*%
D19*
%TO.C,Q2*%
X115460000Y-121000000D03*
D20*
X116730000Y-121000000D03*
X118000000Y-121000000D03*
%TD*%
D19*
%TO.C,Q3*%
X171270000Y-77550000D03*
D20*
X170000000Y-77550000D03*
X168730000Y-77550000D03*
%TD*%
D29*
%TO.C,D1*%
X133080000Y-73000000D03*
D24*
X122920000Y-73000000D03*
%TD*%
D25*
%TO.C,LED1*%
X140500000Y-74960000D03*
D26*
X140500000Y-77500000D03*
%TD*%
D21*
%TO.C,GND1*%
X178100000Y-109367500D03*
X178100000Y-117567500D03*
%TD*%
D27*
%TO.C,Arduino_power_supply1*%
X193222500Y-86120000D03*
D28*
X193222500Y-78500000D03*
%TD*%
D15*
%TO.C,R4*%
X131500000Y-118550000D03*
X123880000Y-118550000D03*
%TD*%
%LPD*%
M02*
